<svg width="121" height="40" viewBox="0 0 121 40" fill="none" xmlns="http://www.w3.org/2000/svg">
<g clip-path="url(#clip0_2_31)">
<path d="M53.151 32H48.561L42.513 13.802H46.995L49.182 21.065C49.578 22.361 49.92 23.612 50.208 24.818C50.496 26.006 50.685 26.87 50.775 27.41L50.91 28.247C51.198 26.375 51.783 23.981 52.665 21.065L54.852 13.802H59.28L53.151 32ZM66.5209 32H62.3629V13.802H66.5209V32ZM78.042 26.492C78.042 28.238 77.574 29.597 76.638 30.569C75.72 31.541 74.433 32.027 72.777 32.027C71.535 32.027 70.572 31.847 69.888 31.487V27.815C70.554 28.229 71.247 28.436 71.967 28.436C73.245 28.436 73.884 27.752 73.884 26.384V13.829H78.042V26.492ZM87.4543 24.278L87.2653 24.926H91.6393L91.4503 24.278C90.9283 22.514 90.4963 21.011 90.1543 19.769C89.8303 18.527 89.6323 17.726 89.5603 17.366L89.4523 16.826C89.3083 17.816 88.6423 20.3 87.4543 24.278ZM85.1593 32H80.8123L86.8873 13.802H92.1253L98.2003 32H93.7453L92.6383 28.274H86.2663L85.1593 32ZM110.092 32H105.934V25.331L99.7239 13.802H104.584L105.691 16.448C106.267 17.816 106.744 18.986 107.122 19.958C107.5 20.93 107.743 21.56 107.851 21.848L107.986 22.28C108.166 21.47 108.958 19.526 110.362 16.448L111.55 13.802H116.383L110.092 25.304V32Z" fill="black"/>
<path d="M19 38C28.9411 38 37 29.9411 37 20C37 10.0589 28.9411 2 19 2C9.05887 2 1 10.0589 1 20C1 29.9411 9.05887 38 19 38Z" fill="#FF014F"/>
<path d="M29.5 9.5H8.5V30.5H29.5V9.5Z" fill="#FF014F"/>
<path d="M29.125 9.875H8.875V30.125H29.125V9.875Z" stroke="white"/>
<path d="M9.10677 9.875L28.8932 9.875L19 29.6615L9.10677 9.875Z" fill="#FF014F"/>
<path d="M19 28.8229L28.2865 10.25L9.71353 10.25L19 28.8229ZM19 30.5L8.5 9.5L29.5 9.5L19 30.5Z" fill="white"/>
<path d="M21.3055 24.4589L15.3804 14.0421H22.6165L20.4527 18.2381" fill="#FF014F"/>
<path d="M21.3055 24.4589L15.3804 14.0421H22.6165L20.4527 18.2381" stroke="white"/>
</g>
<defs>
<clipPath id="clip0_2_31">
<rect width="121" height="40" fill="white"/>
</clipPath>
</defs>
</svg>
