<svg width="3414" height="717" viewBox="0 0 3414 717" fill="none" xmlns="http://www.w3.org/2000/svg">
<g clip-path="url(#clip0_16_2)">
<path d="M1660 374.1V361.6C1660 361.5 1659.9 361.5 1659.8 361.5C1655.3 361.5 1641.5 361.7 1637.4 361.7C1621.1 361.4 1614.3 362 1598.1 360.4C1569.7 357.6 1543.9 346.7 1519.9 331.8C1496.7 317.4 1474.1 302 1451.5 286.7C1422.8 267.2 1393.8 248.3 1361 236.2C1335.5 226.8 1309.4 221.4 1282.6 221.8C1255.8 221.4 1229.7 226.8 1204.2 236.2C1171.4 248.3 1142.4 267.2 1113.7 286.7C1091.1 302.1 1068.5 317.5 1045.3 331.8C1021.3 346.7 995.5 357.6 967.1 360.4C950.9 362 934.5 361.3 918.2 361.5C914 361.6 909.9 361.5 905.4 361.5C905.3 361.5 905.3 361.5 905.2 361.6H905.1V374.1H914.8C927.1 374.2 939.4 374.5 951.7 374.1H966C978.5 375 990.8 377.9 1002.3 382.8C1011.8 386.7 1021.7 390.4 1030.3 395.8C1054 410.7 1077.1 426.4 1100.5 441.7C1123.9 457 1146.7 473.3 1170.9 487.3C1198.4 503.1 1227.4 513.1 1258 516.3V516.5H1259.3H1259.5C1274.7 517.8 1290 517.8 1305.3 516.5H1305.5H1306.8V516.3C1337.4 513.1 1366.5 503.1 1393.9 487.3C1418.1 473.4 1440.9 457.1 1464.3 441.7C1487.7 426.3 1510.8 410.6 1534.5 395.8C1543.2 390.4 1553 386.7 1562.5 382.8C1574.1 378 1586.3 375.1 1598.8 374.1M1051 340.2C1076.7 323 1102.5 305.9 1128.2 288.5C1156.7 269.2 1186 251.5 1219 241C1232.5 236.7 1246.3 233.8 1260.4 232.3V232.5C1267.5 231.7 1274.6 231.3 1281.8 231.2H1283.2C1290.3 231.3 1297.5 231.7 1304.6 232.5V232.3C1318.6 233.8 1332.5 236.7 1346 241C1379.1 251.5 1408.3 269.2 1436.8 288.5C1462.4 305.9 1488.3 323 1514 340.2C1514.9 340.8 1515.1 342 1514.5 342.8C1514.1 343.4 1513.4 343.7 1512.7 343.6C1510.7 343.3 1508.7 342.8 1506.7 342.1C1477.7 332.3 1448.8 322.3 1419.7 312.7C1375 298 1329.3 290.1 1282.5 290.6C1235.7 290.2 1190 298.1 1145.3 312.7C1116.2 322.3 1087.3 332.3 1058.3 342.1C1056.3 342.8 1054.3 343.3 1052.3 343.6C1051.3 343.6 1050.4 342.7 1050.4 341.7C1050.4 341.1 1050.7 340.6 1051.2 340.2H1051ZM1520 391.2C1519.2 392.3 1518.1 393.3 1516.9 394C1500.9 404.8 1484.8 415.5 1468.9 426.4C1446.9 441.4 1425.4 457.2 1402.8 471.3C1372.8 490 1341 502.7 1306.8 506.7C1298.5 507.7 1290.1 508.2 1281.7 508.2C1267.4 508.3 1253.1 506.8 1239.1 503.6C1212 497.8 1186.4 486.5 1162 471.3C1139.4 457.2 1117.9 441.4 1095.9 426.4C1079.9 415.5 1063.9 404.8 1047.9 394L1047.4 393.6C1046.6 393 1046.4 391.8 1047 390.9C1047.5 390.3 1048.3 390 1049 390.2C1050.4 390.6 1051.9 391 1053.3 391.5C1078.9 400.8 1104.6 410.2 1130.2 419.6C1163.4 431.7 1197.4 441.1 1232.5 445.7C1241.1 446.8 1249.8 447.6 1258.4 448L1263.5 448.2H1264.1C1270.2 448.4 1276.3 448.5 1282.4 448.5C1288.5 448.5 1294.6 448.4 1300.7 448.2H1301.3C1302.9 448.2 1304.6 448.2 1306.4 448.2V448C1315.1 447.6 1323.7 446.9 1332.4 445.7C1367.5 441.1 1401.5 431.7 1434.7 419.6C1460.3 410.3 1486 400.9 1511.6 391.5C1514 390.6 1516.4 390 1518.9 389.4C1519.5 389.3 1520.1 389.6 1520.2 390.2C1520.3 390.5 1520.2 390.8 1520.1 391L1520 391.2ZM1522.3 376.9C1516.5 378.9 1507.3 382.5 1502.1 384.4C1467 396.9 1432.3 410.3 1396.9 421.8C1367.6 431.3 1337.2 437.1 1306.4 438.9V438.8C1298.7 439.3 1290.7 439.6 1282.6 439.6C1274.5 439.6 1266.4 439.3 1258.7 438.8V438.9C1227.9 437.1 1197.5 431.4 1168.2 421.8C1132.8 410.3 1097.3 398.7 1063 384.4C1057.7 382.2 1053.6 380.4 1047.6 377.4C1045.7 376.5 1046 373.8 1048.1 373.7H1522.1C1523 373.7 1523.7 374.5 1523.7 375.4C1523.7 376.1 1523.3 376.7 1522.6 376.9H1522.3ZM1521.7 361.1C1520.2 361.2 1518.5 361.2 1516.7 361.3H1402C1368.3 361.1 1333.5 361 1305.7 361.2H1259.5C1189.1 361.1 1072.3 361.1 1043.3 361.1C1041.5 361.1 1041.1 357.8 1042.8 357.2C1074 346.7 1105.3 336.4 1136.4 325.9C1173.1 313.5 1210.5 304.1 1249.2 301.4C1255.8 300.9 1262.5 300.7 1269.1 300.6H1282.6H1296.1C1302.8 300.7 1309.4 300.9 1316 301.4C1354.7 304.1 1392.1 313.5 1428.8 325.9C1460 336.5 1491.2 346.8 1522.4 357.2C1525.3 358.8 1523.7 361 1521.8 361.1H1521.7Z" fill="black"/>
<path d="M2212.8 361.5V361.6C2201.7 361 2198.1 359.6 2191.1 356.1V356.2C2179 349.6 2171 339.3 2165.7 326.6C2161.6 316.8 2159.4 306.6 2157.5 296.3C2155.2 283.7 2153.7 270.9 2150.3 258.4C2146 242.5 2138.9 228.2 2127.3 216.5C2119.7 208.9 2110.9 203.5 2100.2 201.5C2085 198.6 2071.5 202.8 2059.1 211.4C2044.2 221.9 2033.8 236.1 2025.7 252.2C2018.8 266 2013.6 280.5 2007.9 294.8C1995.6 325.5 1973.3 345 1942.2 355.1L1941.9 355.2C1928.5 359.4 1914.6 361.5 1900.5 361.5H1864.3V361.6H1837V361.7H1750.6V374.2H1898C1902.4 374.3 1906.5 374.2 1909.4 374.1H1976.7H1980.1L2012.9 374.4C2026.9 374.4 2040.9 376.5 2054.3 380.7L2054.7 380.8C2085.8 390.8 2108.1 410.4 2120.4 441.1C2126.1 455.4 2131.3 469.9 2138.2 483.7C2146.3 499.8 2156.7 514 2171.6 524.5C2183.9 533.2 2197.5 537.3 2212.7 534.4C2223.4 532.4 2232.3 527 2239.8 519.4C2251.5 507.6 2258.5 493.3 2262.8 477.5C2266.2 465.1 2267.7 452.3 2270 439.6C2271.9 429.3 2274.1 419 2278.2 409.3C2283.6 396.6 2291.6 386.3 2303.6 379.7C2303.6 379.7 2305.8 378.3 2307.1 377.5C2307.7 377.1 2308.4 376.8 2309 376.5C2313 375 2314.8 374.9 2324.6 374.4H2325H2326.4H2326.9L2372.6 374.6V374.5H2478.8V374.4H2509.5V361.9M2289.6 374.4C2280.9 381 2274.5 390 2269.3 400.9C2264.1 411.8 2261.4 423.8 2259.2 435.7C2256.6 449.8 2254.8 464 2250.5 477.7C2247.3 488.2 2242.8 498 2235.6 506.5C2229.2 514 2221.7 519.7 2212 522.3C2200.6 525.3 2190.1 522.6 2180.3 516.7C2170.6 510.8 2163.3 502.7 2157 493.4C2148.5 480.9 2142.8 467 2137.4 452.9C2134.2 444.6 2130.9 436.4 2127.3 428.3C2120.2 411.5 2108.2 397.1 2092.9 387C2067 369.9 2053.2 364.7 2022.9 361.9C2020 361.6 2015.3 361.6 2010.1 361.7H1959C1966.4 357.9 1973.5 353.6 1980.4 349C1995.9 338.8 2007.2 324.9 2014.7 307.8C2018.3 299.7 2021.6 291.4 2024.7 283.2C2030.1 269.2 2035.8 255.3 2044.3 242.7C2050.6 233.5 2057.9 225.3 2067.6 219.4C2077.4 213.4 2087.9 210.8 2099.3 213.8C2108.9 216.3 2116.5 222.1 2122.9 229.6C2130.1 238 2134.6 247.8 2137.8 258.4C2142 272.1 2143.9 286.3 2146.5 300.4C2148.7 312.4 2151.4 324.2 2156.6 335.2C2164.6 352 2175.2 364.1 2192.9 370.2C2199.4 372.4 2200 373.4 2213.1 374.3V374" fill="black"/>
<path d="M3175.9 363.8L3150.5 342.3C3149.4 341.3 3147.8 341 3146.3 341.4C3144.9 341.8 3143.8 343 3143.5 344.5C3143.2 346 3143.8 347.4 3144.9 348.4L3160.2 361.3H2598.8V373.8H3160.3L3144.9 386.8C3143.3 388.2 3143.1 390.7 3144.5 392.4L3144.6 392.5C3146.1 394.1 3148.7 394.3 3150.5 392.9L3175.9 371.4C3178 369.7 3178.3 366.6 3176.6 364.5C3176.4 364.2 3176.1 363.9 3175.9 363.8ZM3167.1 368V367.2C3167.4 367.3 3167.4 367.7 3167.1 368C3167.2 367.9 3167.2 367.9 3167.1 368Z" fill="black"/>
<path d="M859.9 345.6C871.9 345.6 881.6 355.3 881.6 367.3V368.2C881.6 380.2 871.9 389.9 859.9 389.9C847.9 389.9 838.2 380.2 838.2 368.2V367.3C838.3 355.3 848 345.6 859.9 345.6Z" fill="black"/>
<path d="M1705.4 345.6C1717.4 345.6 1727.1 355.3 1727.1 367.3V368.2C1727.1 380.2 1717.4 389.9 1705.4 389.9C1693.4 389.9 1683.7 380.2 1683.7 368.2V367.3C1683.7 355.3 1693.4 345.6 1705.4 345.6Z" fill="black"/>
<path d="M2554.8 345.6C2566.8 345.6 2576.5 355.3 2576.5 367.3V368.2C2576.5 380.2 2566.8 389.9 2554.8 389.9C2542.8 389.9 2533.1 380.2 2533.1 368.2V367.3C2533.1 355.3 2542.8 345.6 2554.8 345.6Z" fill="black"/>
<path d="M3222.3 345.6C3234.3 345.6 3244 355.3 3244 367.3V368.2C3244 380.2 3234.3 389.9 3222.3 389.9C3210.3 389.9 3200.6 380.2 3200.6 368.2V367.3C3200.6 355.3 3210.4 345.6 3222.3 345.6Z" fill="black"/>
<path d="M716.5 558.7V505H733.3C738.6 504.9 743.8 506.2 748.3 509C752.5 511.7 754.6 516.1 754.5 522.2C754.4 528.3 752.2 532.9 747.7 535.7C743.2 538.6 737.9 540.1 732.5 540H726.6V558.7H716.5ZM733 513.5H726.7V531.5H733.2C735.8 531.6 738.4 530.9 740.6 529.4C742.5 528 743.6 525.8 743.8 522.8C743.8 519.3 742.9 516.9 741 515.5C739 514.1 736.3 513.5 733 513.5Z" fill="black"/>
<path d="M783.7 520.3L785.7 528.5C783.6 528.6 781.6 529.1 779.7 530C777.2 531.1 774.9 532.6 772.9 534.4V558.6H762.6V520.3H768L771.4 525.9C773.2 524.4 775.1 523.1 777.2 522.1C779.2 521 781.5 520.4 783.7 520.3Z" fill="black"/>
<path d="M808.7 559.6C802.6 559.5 797.9 557.7 794.5 554.1C791.1 550.5 789.4 545.6 789.4 539.4C789.4 533.3 791.2 528.4 794.7 524.8C798.2 521.2 803.1 519.3 809.3 519.3C815.7 519.3 820.6 521.2 824.1 525C827.6 528.8 829.4 533.7 829.4 539.8C829.4 545.9 827.5 550.7 823.7 554.3C819.9 557.8 814.9 559.6 808.7 559.6ZM818.8 539.8C818.8 536.2 818 533.3 816.4 531.2C814.8 529.1 812.2 527.9 809.6 528.1C807 528 804.4 529 802.6 530.9C800.9 532.8 800 535.6 800 539.4C800 543.2 800.7 546.1 802.2 548C803.6 550 805.9 550.9 808.9 550.9C811.6 551 814.1 550.1 816.1 548.2C817.9 546.4 818.8 543.6 818.8 539.8Z" fill="black"/>
<path d="M848.4 502.9V521.6C849.9 520.7 851.6 520.1 853.3 519.6C854.8 519.2 856.4 518.9 857.9 518.9C863.5 518.9 867.9 520.9 870.9 524.7C873.9 528.5 875.4 533.4 875.4 539.2C875.4 545 873.9 549.9 870.8 553.7C867.7 557.5 863.4 559.5 858 559.5C856 559.5 853.9 559.1 852 558.4C849.9 557.7 847.9 556.7 846.1 555.3L843.6 558.5H838.4V503.6L848.4 502.9ZM855.2 550.9C858.7 550.9 861.2 549.6 862.6 547.1C864 544.7 864.7 542 864.7 539.3C864.7 536.5 864.1 533.7 862.8 531.2C861.5 528.8 859 527.6 855.1 527.6C853.9 527.6 852.8 527.8 851.7 528.2C850.5 528.6 849.4 529.1 848.3 529.8V548.6C849.4 549.2 850.5 549.8 851.7 550.2C852.9 550.6 854 550.8 855.2 550.9Z" fill="black"/>
<path d="M894.3 502.9V558.7H884.1V503.8L894.3 502.9Z" fill="black"/>
<path d="M924.4 559.6C917.7 559.6 912.5 557.8 908.7 554.1C904.9 550.4 903 545.6 903 539.5C903 533.4 904.7 528.5 908.2 524.8C911.7 521.1 916.4 519.3 922.3 519.3C928.3 519.3 932.7 521.3 935.5 525.3C938.4 529.4 939.8 534.4 939.7 539.4V542.6H913.9C914.3 545 915.5 547.1 917.4 548.6C919.5 550.2 922.1 551 924.7 550.8C926.3 550.8 927.9 550.6 929.4 550.1C931.1 549.5 932.7 548.9 934.3 548.2L937.3 555.6C935.4 557 933.1 558.1 930.8 558.6C928.7 559.2 926.6 559.6 924.4 559.6ZM930 535.6C929.7 533.4 928.7 531.4 927.2 529.9C925.8 528.7 923.9 528 922.1 528.1C920.2 528 918.3 528.7 916.8 530C915.3 531.5 914.3 533.5 914 535.7H930V535.6Z" fill="black"/>
<path d="M980.6 524.8C982.4 522.8 984.6 521.3 987.1 520.4C989.4 519.4 991.9 518.9 994.4 518.8C999.6 518.8 1003.3 520.3 1005.5 523.4C1007.8 526.7 1008.9 530.6 1008.8 534.6V558.6H998.4V535.1C998.5 533.1 997.9 531.1 996.7 529.5C995.4 528.1 993.5 527.4 991.6 527.6C990 527.6 988.4 528 986.9 528.8C985.3 529.5 983.9 530.4 982.5 531.5L982.7 533.1C982.8 533.6 982.8 534.2 982.8 534.7V558.7H972.4V535.2C972.5 533.2 971.9 531.2 970.7 529.6C969.4 528.2 967.6 527.5 965.7 527.7C964.3 527.7 963 528 961.7 528.5C960.3 529.1 959.1 529.8 957.9 530.6V558.7H947.7V520.4H953.1L955.6 523.9C957.4 522.3 959.6 521 961.9 520.2C964 519.4 966.2 519 968.5 518.9C971.1 518.8 973.7 519.4 976 520.5C977.9 521.5 979.5 523 980.6 524.8Z" fill="black"/>
<path d="M761 624.6H745.8V647.4H735.6V593.6H766L767.6 601.7H745.8V616.6H759.5L761 624.6Z" fill="black"/>
<path d="M778.5 592C780.1 592 781.5 592.6 782.7 593.7C785 596 785 599.6 782.7 601.9C781.6 603 780.1 603.6 778.5 603.6C777 603.6 775.5 603 774.5 601.9C772.2 599.7 772.2 596 774.4 593.7C775.5 592.6 777 592 778.5 592ZM783.7 609V647.3H773.4V609H783.7Z" fill="black"/>
<path d="M802.1 613.1C804 611.3 806.2 609.9 808.6 609C810.8 608.1 813.2 607.6 815.6 607.5C820.8 607.5 824.5 609 826.7 612.1C829 615.4 830.1 619.3 830 623.3V647.3H819.7V623.8C819.8 621.8 819.2 619.8 818 618.2C816.7 616.8 814.8 616.1 812.9 616.3C811.3 616.3 809.7 616.7 808.3 617.5C806.8 618.2 805.3 619.1 803.9 620.2V647.5H793.6V609H799L802.1 613.1Z" fill="black"/>
<path d="M876 591.5V647.3H870.6L867.8 643.6C866 645.1 863.9 646.3 861.7 647C859.7 647.8 857.5 648.2 855.3 648.2C849.7 648.2 845.4 646.3 842.4 642.4C839.4 638.5 837.9 633.6 837.9 627.9C837.9 622.1 839.5 617.3 842.7 613.4C845.9 609.5 850.2 607.6 855.8 607.6C857.4 607.6 859.1 607.9 860.6 608.4C862.4 608.9 864.1 609.6 865.7 610.5V592.6L876 591.5ZM858 616.3C854.4 616.3 851.9 617.6 850.5 620.1C849.1 622.5 848.4 625.2 848.4 627.9C848.3 630.7 849 633.5 850.3 636C851.6 638.4 854.1 639.6 858 639.6C859.3 639.6 860.6 639.3 861.8 638.8C863.1 638.3 864.4 637.6 865.6 636.9V619C864.4 618.2 863.2 617.5 861.8 617C860.6 616.6 859.3 616.3 858 616.3Z" fill="black"/>
<path d="M891.4 592C893 592 894.4 592.6 895.6 593.7C897.9 596 897.9 599.6 895.6 601.9C894.5 603 893 603.6 891.4 603.6C889.9 603.6 888.4 603 887.4 601.9C885.2 599.6 885.2 596 887.4 593.7C888.4 592.6 889.9 592 891.4 592ZM896.5 609V647.3H886.2V609H896.5Z" fill="black"/>
<path d="M915 613.1C916.9 611.3 919.1 609.9 921.5 609C923.7 608.1 926.1 607.6 928.5 607.5C933.7 607.5 937.4 609 939.6 612.1C941.9 615.4 943 619.3 942.9 623.3V647.3H932.6V623.8C932.7 621.8 932.1 619.8 930.9 618.2C929.6 616.8 927.7 616.1 925.8 616.3C924.2 616.3 922.6 616.7 921.2 617.5C919.6 618.2 918.2 619.1 916.8 620.2V647.5H906.5V609H911.9L915 613.1Z" fill="black"/>
<path d="M988.9 609V647.3C989 651.7 987.3 655.9 984.2 659C981.1 662.1 976.1 663.7 969.3 663.7C966.9 663.6 964.5 663.2 962.2 662.6C959.5 662 956.8 660.9 954.4 659.4L957.5 652.1C959.5 653.1 961.5 653.9 963.6 654.6C965.4 655.1 967.2 655.4 969.1 655.5C972.2 655.5 974.5 654.7 976.1 653.3C977.8 651.8 978.7 649.6 978.6 647.3V645.3C977 646.3 975.2 647 973.4 647.6C971.7 648.1 970 648.4 968.3 648.4C962.7 648.4 958.4 646.4 955.4 642.6C952.4 638.8 950.9 633.9 950.9 628.1C950.9 622.3 952.5 617.5 955.7 613.6C958.9 609.7 963.2 607.8 968.8 607.8C971 607.9 973.2 608.3 975.2 609C977.4 609.7 979.5 610.9 981.3 612.4L983.7 609.2L988.9 609ZM970.9 616.3C967.3 616.3 964.8 617.6 963.4 620.1C962 622.5 961.3 625.2 961.3 627.9C961.2 630.7 961.9 633.5 963.2 636C964.5 638.4 967 639.6 970.9 639.6C972.2 639.6 973.5 639.3 974.7 638.8C976 638.3 977.3 637.6 978.5 636.9V619C977.3 618.2 976.1 617.5 974.7 617C973.5 616.6 972.2 616.3 970.9 616.3Z" fill="black"/>
<path d="M1563.4 558.7V505H1580.2C1585.5 504.9 1590.7 506.2 1595.2 509C1599.4 511.7 1601.4 516.1 1601.4 522.2C1601.4 528.4 1599.1 532.9 1594.6 535.7C1590.1 538.6 1584.8 540.1 1579.4 540H1573.5V558.7H1563.4ZM1579.9 513.4H1573.6V531.4H1580.1C1582.7 531.5 1585.3 530.8 1587.5 529.3C1589.4 527.9 1590.5 525.7 1590.7 522.7C1590.7 519.2 1589.8 516.8 1587.9 515.4C1586 514 1583.3 513.4 1579.9 513.4Z" fill="black"/>
<path d="M1630.7 520.3L1632.8 528.5C1630.7 528.6 1628.7 529.1 1626.8 530C1624.3 531.1 1622 532.6 1620 534.4V558.6H1609.7V520.3H1615L1618.4 525.9C1620.2 524.4 1622.1 523.1 1624.2 522.1C1626.2 521 1628.4 520.4 1630.7 520.3Z" fill="black"/>
<path d="M1655.6 559.6C1649.5 559.5 1644.8 557.7 1641.4 554.1C1638 550.5 1636.3 545.6 1636.3 539.4C1636.3 533.3 1638.1 528.4 1641.6 524.8C1645.2 521.2 1650 519.3 1656.2 519.3C1662.6 519.3 1667.5 521.2 1671 525C1674.5 528.8 1676.3 533.7 1676.2 539.8C1676.2 545.9 1674.3 550.7 1670.5 554.3C1666.9 557.8 1661.9 559.6 1655.6 559.6ZM1665.8 539.8C1665.8 536.2 1665 533.3 1663.4 531.2C1661.8 529.1 1659.2 527.9 1656.6 528.1C1654 528 1651.4 529 1649.6 530.9C1647.9 532.7 1647.1 535.6 1647.1 539.4C1647.1 543.2 1647.8 546.1 1649.3 548C1650.8 550 1653 550.9 1656 550.9C1658.7 551 1661.2 550.1 1663.2 548.2C1664.8 546.4 1665.8 543.6 1665.8 539.8Z" fill="black"/>
<path d="M1695.3 502.9V521.6C1696.8 520.7 1698.5 520.1 1700.2 519.6C1701.7 519.2 1703.3 518.9 1704.8 518.9C1710.4 518.9 1714.8 520.9 1717.8 524.7C1720.8 528.6 1722.3 533.4 1722.3 539.2C1722.3 545 1720.8 549.9 1717.7 553.7C1714.6 557.5 1710.3 559.5 1704.9 559.5C1702.9 559.5 1700.8 559.1 1698.9 558.4C1696.8 557.7 1694.8 556.7 1693 555.3L1690.5 558.5H1685.3V503.6L1695.3 502.9ZM1702.1 550.9C1705.6 550.9 1708.1 549.6 1709.5 547.1C1710.9 544.7 1711.6 542 1711.6 539.3C1711.6 536.5 1711 533.7 1709.7 531.2C1708.4 528.8 1705.9 527.6 1702 527.6C1700.8 527.6 1699.7 527.8 1698.6 528.2C1697.4 528.6 1696.3 529.1 1695.2 529.8V548.6C1696.3 549.2 1697.4 549.8 1698.6 550.2C1699.8 550.6 1700.9 550.8 1702.1 550.9Z" fill="black"/>
<path d="M1741.2 502.9V558.7H1731V503.8L1741.2 502.9Z" fill="black"/>
<path d="M1771.4 559.6C1764.7 559.6 1759.5 557.8 1755.7 554.1C1751.9 550.5 1750 545.6 1750 539.5C1750 533.4 1751.7 528.5 1755.2 524.8C1758.6 521.1 1763.3 519.3 1769.3 519.3C1775.3 519.3 1779.7 521.3 1782.5 525.3C1785.4 529.4 1786.8 534.4 1786.7 539.4V542.6H1760.9C1761.3 545 1762.5 547.1 1764.4 548.6C1766.5 550.2 1769.1 551 1771.7 550.8C1773.3 550.8 1774.9 550.6 1776.4 550.1C1778.1 549.6 1779.7 548.9 1781.3 548.2L1784.3 555.6C1782.4 557 1780.1 558.1 1777.8 558.6C1775.6 559.3 1773.5 559.6 1771.4 559.6ZM1777 535.6C1776.7 533.4 1775.7 531.4 1774.2 529.9C1772.8 528.7 1770.9 528 1769.1 528.1C1767.2 528 1765.3 528.7 1763.8 530C1762.3 531.5 1761.3 533.5 1761 535.7H1777V535.6Z" fill="black"/>
<path d="M1827.6 524.8C1829.4 522.8 1831.6 521.3 1834.1 520.4C1836.4 519.4 1838.9 518.9 1841.4 518.8C1846.6 518.8 1850.3 520.3 1852.5 523.4C1854.8 526.7 1855.9 530.6 1855.8 534.6V558.6H1845.5V535.1C1845.6 533.1 1845 531.1 1843.8 529.5C1842.5 528.1 1840.6 527.4 1838.7 527.6C1837.1 527.6 1835.5 528 1834 528.8C1832.4 529.5 1831 530.4 1829.6 531.5C1829.6 532 1829.7 532.5 1829.8 533.1C1829.9 533.7 1829.9 534.1 1829.9 534.7V558.7H1819.5V535.2C1819.6 533.2 1819 531.2 1817.8 529.6C1816.5 528.2 1814.7 527.5 1812.8 527.7C1811.4 527.7 1810.1 528 1808.8 528.5C1807.5 529.1 1806.2 529.8 1805 530.6V558.7H1794.7V520.4H1800.1L1802.6 523.9C1804.4 522.3 1806.6 521 1808.9 520.2C1811 519.4 1813.2 519 1815.5 518.9C1818.1 518.8 1820.7 519.4 1823 520.5C1824.8 521.5 1826.5 523 1827.6 524.8Z" fill="black"/>
<path d="M1594.5 624.6H1579.3V647.4H1569.1V593.6H1599.5L1601.1 601.7H1579.3V616.6H1593L1594.5 624.6Z" fill="black"/>
<path d="M1627.9 609L1629.9 617.2C1627.8 617.3 1625.8 617.8 1623.9 618.7C1621.4 619.8 1619.2 621.3 1617.1 623.1V647.3H1606.8V609H1612.2L1615.6 614.6C1617.4 613.1 1619.3 611.8 1621.4 610.8C1623.4 609.7 1625.7 609.1 1627.9 609Z" fill="black"/>
<path d="M1647.9 648.3C1643.2 648.3 1639.8 647.2 1637.5 644.9C1635.2 642.5 1634 639.2 1634.1 635.9C1634.1 631.9 1635.4 628.9 1638.1 626.8C1640.8 624.7 1644.3 623.6 1648.6 623.6H1656.1C1656.1 621.9 1655.5 620.3 1654.4 619.1C1653.2 618 1651.6 617.4 1649.9 617.5C1647.9 617.5 1646 617.8 1644.1 618.3C1642.3 618.7 1640.5 619.3 1638.8 620.1L1636 611.6C1638.1 610.4 1640.4 609.5 1642.8 609.1C1645.1 608.5 1647.4 608.2 1649.8 608.1C1654.1 608 1658.3 609.4 1661.6 612.1C1664.8 614.5 1666.6 618.3 1666.5 622.3V647.5H1661.2L1658.7 644.3C1657.2 645.5 1655.5 646.5 1653.7 647.2C1651.9 647.8 1649.9 648.3 1647.9 648.3ZM1642.9 635.9C1642.9 637 1643.4 638.1 1644.2 638.9C1645.2 639.8 1646.4 640.3 1647.8 640.2C1649.3 640.2 1650.7 639.9 1652.1 639.3C1653.6 638.6 1655 637.6 1656.3 636.5V630.7H1648.6C1647 630.6 1645.5 631.2 1644.4 632.4C1643.4 633.2 1642.9 634.5 1642.9 635.9Z" fill="black"/>
<path d="M1709 613.5C1710.8 611.5 1713 610 1715.5 609.1C1717.8 608.1 1720.3 607.6 1722.8 607.5C1728 607.5 1731.7 609 1733.9 612.1C1736.2 615.4 1737.3 619.3 1737.2 623.3V647.3H1726.9V623.8C1727 621.8 1726.4 619.8 1725.2 618.2C1723.9 616.8 1722 616.1 1720.1 616.3C1718.5 616.3 1716.9 616.7 1715.4 617.5C1713.8 618.2 1712.4 619.1 1711 620.2C1711 620.7 1711.1 621.3 1711.2 621.8C1711.3 622.3 1711.3 622.8 1711.3 623.4V647.4H1701V623.9C1701.1 621.9 1700.5 619.9 1699.3 618.3C1698 616.9 1696.2 616.2 1694.3 616.4C1692.9 616.4 1691.6 616.7 1690.3 617.2C1688.9 617.8 1687.7 618.5 1686.5 619.3V647.4H1676V609H1681.4L1683.9 612.5C1685.7 610.9 1687.9 609.6 1690.2 608.8C1692.3 608 1694.5 607.6 1696.8 607.5C1699.4 607.4 1702 608 1704.3 609.1C1706.2 610.1 1707.9 611.6 1709 613.5Z" fill="black"/>
<path d="M1751.7 592C1753.3 592 1754.7 592.6 1755.9 593.7C1758.2 596 1758.2 599.6 1755.9 601.9C1754.8 603 1753.3 603.6 1751.7 603.6C1750.2 603.6 1748.7 603 1747.7 601.9C1745.5 599.6 1745.5 596 1747.7 593.7C1748.8 592.6 1750.2 592 1751.7 592ZM1756.9 609V647.3H1746.6V609H1756.9Z" fill="black"/>
<path d="M1775.3 613.1C1777.2 611.3 1779.4 609.9 1781.8 609C1784 608.1 1786.4 607.6 1788.8 607.5C1794 607.5 1797.7 609 1799.9 612.1C1802.2 615.4 1803.3 619.3 1803.2 623.3V647.3H1792.9V623.8C1793 621.8 1792.4 619.8 1791.2 618.2C1789.9 616.8 1788 616.1 1786.1 616.3C1784.5 616.3 1782.9 616.7 1781.5 617.5C1779.9 618.2 1778.5 619.1 1777.1 620.2V647.5H1766.8V609H1772.2L1775.3 613.1Z" fill="black"/>
<path d="M1849.2 609V647.3C1849.3 651.7 1847.6 655.9 1844.5 659C1841.4 662.1 1836.4 663.7 1829.6 663.7C1827.2 663.6 1824.8 663.2 1822.5 662.6C1819.8 662 1817.1 660.9 1814.8 659.4L1817.9 652.1C1819.9 653.1 1821.9 653.9 1824 654.6C1825.8 655.1 1827.6 655.4 1829.4 655.5C1832.5 655.5 1834.8 654.7 1836.4 653.3C1838.1 651.8 1839 649.6 1838.8 647.3V645.3C1837.2 646.3 1835.4 647 1833.6 647.6C1831.9 648.1 1830.2 648.4 1828.5 648.4C1822.9 648.4 1818.6 646.4 1815.6 642.6C1812.6 638.7 1811.1 633.9 1811.1 628.1C1811.1 622.3 1812.7 617.5 1815.9 613.6C1819.1 609.7 1823.5 607.8 1829 607.8C1831.2 607.9 1833.3 608.3 1835.4 609C1837.6 609.7 1839.7 610.9 1841.5 612.4L1843.9 609.2L1849.2 609ZM1831.2 616.3C1827.6 616.3 1825.1 617.6 1823.7 620.1C1822.3 622.5 1821.6 625.2 1821.6 627.9C1821.6 630.7 1822.2 633.5 1823.5 636C1824.8 638.4 1827.3 639.6 1831.2 639.6C1832.5 639.6 1833.8 639.3 1835 638.8C1836.3 638.3 1837.6 637.6 1838.8 636.9V619C1837.6 618.2 1836.4 617.5 1835 617C1833.9 616.6 1832.6 616.3 1831.2 616.3Z" fill="black"/>
<path d="M2410.8 546.8C2412.8 547.8 2414.9 548.7 2417 549.3C2419.3 550.1 2421.7 550.5 2424.2 550.6C2427.4 550.6 2429.8 550.1 2431.4 549.1C2432.9 548.2 2433.9 546.5 2433.8 544.8C2433.8 543 2432.7 541.4 2430.6 540C2428.3 538.5 2426 537.2 2423.5 535.9C2419.7 533.9 2416 531.6 2412.6 529C2409.1 526.4 2407.2 522.3 2407.5 518C2407.5 514 2409.3 510.3 2412.4 507.8C2415.6 505 2420.1 503.6 2426 503.7C2428.7 503.7 2431.5 504.1 2434.1 505C2436.5 505.7 2438.9 506.7 2441.2 507.8L2437.8 516C2436.2 515.2 2434.4 514.5 2432.5 513.8C2430.5 513.1 2428.3 512.7 2426.2 512.7C2424.2 512.6 2422.2 513.1 2420.5 514C2419 514.8 2418.1 516.4 2418.2 518.1C2418.2 520.2 2419.4 522.1 2421.2 523.1C2423.2 524.4 2425.6 525.8 2428.3 527.3C2432.2 529.3 2435.8 531.6 2439.3 534.2C2442.7 536.7 2444.7 540.8 2444.5 545C2444.5 549.2 2442.6 553.1 2439.3 555.6C2435.9 558.4 2430.9 559.8 2424.4 559.8C2421.4 559.7 2418.5 559.2 2415.7 558.3C2412.1 557.3 2409.8 556.3 2408.6 555.2L2410.8 546.8Z" fill="black"/>
<path d="M2470.4 559.6C2464.3 559.5 2459.6 557.7 2456.2 554.1C2452.8 550.5 2451.1 545.6 2451.1 539.4C2451.1 533.3 2452.9 528.4 2456.4 524.8C2459.9 521.2 2464.8 519.3 2471 519.3C2477.4 519.3 2482.3 521.2 2485.8 525C2489.3 528.8 2491.1 533.7 2491 539.8C2491 545.9 2489.1 550.7 2485.3 554.3C2481.6 557.8 2476.6 559.6 2470.4 559.6ZM2480.5 539.8C2480.5 536.2 2479.7 533.3 2478.1 531.2C2476.5 529.1 2473.9 527.9 2471.3 528.1C2468.7 528 2466.1 529 2464.3 530.9C2462.6 532.7 2461.8 535.6 2461.8 539.4C2461.8 543.2 2462.5 546.1 2464 548C2465.4 550 2467.7 550.9 2470.7 550.9C2473.4 551 2475.9 550.1 2477.9 548.2C2479.6 546.4 2480.5 543.6 2480.5 539.8Z" fill="black"/>
<path d="M2510.1 502.9V558.7H2499.9V503.8L2510.1 502.9Z" fill="black"/>
<path d="M2547.6 554.9C2543.9 558.2 2539.2 560 2534.3 560.3C2529.1 560.3 2525.4 558.8 2523.2 555.7C2521 552.4 2519.8 548.5 2519.9 544.5V520.4H2530.3V544C2530.2 546 2530.8 548 2532 549.6C2533.3 551 2535.2 551.7 2537.1 551.5C2538.6 551.5 2540.1 551.1 2541.5 550.5C2543 549.8 2544.4 549 2545.7 548.1V520.3H2556V558.6H2550.6L2547.6 554.9Z" fill="black"/>
<path d="M2589.5 557.9C2588.4 558.7 2587.2 559.3 2585.9 559.6C2584.6 560 2583.2 560.2 2581.8 560.3C2577.1 560.3 2573.3 559.1 2570.6 556.7C2567.9 554.3 2566.5 550.9 2566.5 546.5V528.4H2561.4V520.5H2566.5V511.4L2576.7 509.6V520.5H2583.7L2586.9 528.4H2576.8V544.7C2576.7 546.5 2577.2 548.2 2578.2 549.6C2579.2 550.9 2580.8 551.6 2582.4 551.5C2583.1 551.5 2583.7 551.4 2584.4 551.3C2585.1 551.1 2585.9 550.9 2586.5 550.5L2589.5 557.9Z" fill="black"/>
<path d="M2600.4 503.3C2602 503.3 2603.4 503.9 2604.5 505C2606.8 507.3 2606.8 510.9 2604.5 513.2C2603.4 514.3 2601.9 514.9 2600.4 514.9C2598.9 514.9 2597.4 514.3 2596.4 513.2C2594.1 511 2594.1 507.3 2596.3 505C2597.4 504 2598.8 503.3 2600.4 503.3ZM2605.5 520.3V558.6H2595.2V520.3H2605.5Z" fill="black"/>
<path d="M2633.2 559.6C2627.1 559.5 2622.4 557.7 2619 554.1C2615.6 550.5 2613.9 545.6 2613.9 539.4C2613.9 533.3 2615.7 528.4 2619.2 524.8C2622.7 521.2 2627.6 519.3 2633.8 519.3C2640.2 519.3 2645.1 521.2 2648.6 525C2652.1 528.8 2653.9 533.7 2653.9 539.8C2653.9 545.9 2652 550.7 2648.2 554.3C2644.4 557.8 2639.4 559.6 2633.2 559.6ZM2643.3 539.8C2643.3 536.2 2642.5 533.3 2640.9 531.2C2639.3 529.1 2636.7 527.9 2634.1 528.1C2631.5 528 2628.9 529 2627.1 530.9C2625.4 532.7 2624.6 535.6 2624.6 539.4C2624.6 543.2 2625.3 546.1 2626.8 548C2628.3 550 2630.5 550.9 2633.5 550.9C2636.2 551 2638.7 550.1 2640.7 548.2C2642.4 546.4 2643.3 543.6 2643.3 539.8Z" fill="black"/>
<path d="M2670.6 524.4C2672.5 522.6 2674.7 521.2 2677.1 520.3C2679.3 519.4 2681.7 518.9 2684.1 518.8C2689.3 518.8 2693 520.3 2695.2 523.4C2697.5 526.7 2698.6 530.6 2698.5 534.6V558.6H2688.2V535.1C2688.3 533.1 2687.7 531.1 2686.5 529.5C2685.2 528.1 2683.3 527.4 2681.4 527.6C2679.8 527.6 2678.2 528 2676.8 528.8C2675.2 529.5 2673.8 530.4 2672.4 531.5V558.8H2662.1V520.5H2667.5L2670.6 524.4Z" fill="black"/>
<path d="M2415.5 635.5C2417.5 636.5 2419.6 637.3 2421.7 638C2424 638.8 2426.4 639.2 2428.9 639.3C2432.1 639.3 2434.5 638.8 2436.1 637.8C2437.7 636.9 2438.6 635.2 2438.5 633.5C2438.5 631.7 2437.4 630.1 2435.3 628.7C2433 627.2 2430.7 625.9 2428.2 624.6C2424.4 622.6 2420.7 620.3 2417.3 617.7C2413.8 615.1 2411.9 611 2412.2 606.7C2412.2 602.7 2414 599 2417.1 596.5C2420.3 593.7 2424.8 592.3 2430.7 592.3C2433.4 592.3 2436.2 592.7 2438.8 593.6C2441.2 594.4 2443.6 595.3 2445.9 596.4L2442.5 604.6C2440.9 603.8 2439.1 603.1 2437.2 602.4C2435.2 601.7 2433 601.3 2430.9 601.3C2428.9 601.2 2426.9 601.7 2425.2 602.6C2423.7 603.4 2422.8 605 2422.9 606.7C2422.9 608.8 2424.1 610.7 2425.9 611.7C2427.9 613 2430.3 614.4 2433 615.9C2436.9 617.9 2440.5 620.2 2444 622.8C2447.4 625.3 2449.4 629.4 2449.2 633.6C2449.2 637.8 2447.3 641.7 2444 644.2C2440.6 647 2435.6 648.4 2429.1 648.4C2426.1 648.3 2423.2 647.8 2420.4 646.9C2416.8 645.9 2414.5 644.9 2413.3 643.8L2415.5 635.5Z" fill="black"/>
<path d="M2468.1 611.5C2469.8 610.2 2471.8 609.1 2473.9 608.5C2475.8 607.9 2477.8 607.5 2479.8 607.5C2485 607.5 2488.7 609 2490.9 612.1C2493.2 615.4 2494.3 619.3 2494.2 623.3V647.3H2484V623.7C2484.1 621.7 2483.5 619.7 2482.3 618.1C2481 616.7 2479.1 616 2477.2 616.2C2475.6 616.2 2474 616.6 2472.6 617.4C2471.1 618.1 2469.6 619 2468.2 620.1V647.4H2458V592.5L2468.2 591.6L2468.1 611.5Z" fill="black"/>
<path d="M2516.4 648.3C2511.7 648.3 2508.3 647.2 2506 644.9C2503.7 642.5 2502.5 639.2 2502.6 635.9C2502.6 631.9 2503.9 628.9 2506.6 626.8C2509.3 624.7 2512.8 623.6 2517.1 623.6H2524.6C2524.7 621.9 2524 620.3 2522.9 619.1C2521.7 618 2520.1 617.4 2518.4 617.5C2516.4 617.5 2514.5 617.8 2512.5 618.3C2510.7 618.7 2508.9 619.3 2507.2 620.1L2504.4 611.6C2506.5 610.4 2508.8 609.5 2511.2 609.1C2513.5 608.5 2515.8 608.2 2518.2 608.1C2522.5 608 2526.7 609.4 2530 612.1C2533.1 614.5 2535 618.3 2534.9 622.3V647.5H2529.6L2527.1 644.3C2525.6 645.5 2523.9 646.5 2522.1 647.2C2520.3 647.8 2518.3 648.3 2516.4 648.3ZM2511.3 635.9C2511.3 637 2511.8 638.1 2512.6 638.9C2513.6 639.8 2514.8 640.3 2516.2 640.2C2517.7 640.2 2519.2 639.9 2520.5 639.3C2522 638.6 2523.4 637.6 2524.6 636.5V630.7H2516.8C2515.2 630.6 2513.7 631.2 2512.7 632.4C2511.8 633.2 2511.3 634.5 2511.3 635.9Z" fill="black"/>
<path d="M2545 609H2550.2L2552.4 611.8C2554.2 610.4 2556.3 609.4 2558.5 608.6C2560.5 607.9 2562.6 607.5 2564.7 607.4C2570.3 607.4 2574.7 609.3 2577.7 613.2C2580.7 617.1 2582.2 621.9 2582.2 627.7C2582.2 633.5 2580.7 638.4 2577.6 642.2C2574.5 646.1 2570.2 648 2564.8 648C2563.2 648 2561.7 647.7 2560.2 647.3C2558.5 646.8 2556.9 646.2 2555.3 645.3V663.6L2545.1 664.4L2545 609ZM2562 639.5C2565.5 639.5 2568 638.2 2569.4 635.7C2570.8 633.3 2571.5 630.6 2571.5 627.9C2571.5 625.1 2570.9 622.3 2569.6 619.8C2568.3 617.4 2565.8 616.2 2561.9 616.2C2560.7 616.2 2559.6 616.4 2558.5 616.8C2557.3 617.2 2556.2 617.7 2555.1 618.4V637.2C2556.2 637.8 2557.3 638.4 2558.5 638.8C2559.7 639.3 2560.8 639.5 2562 639.5Z" fill="black"/>
<path d="M2595.5 592C2597.1 592 2598.5 592.6 2599.6 593.7C2601.9 596 2601.9 599.6 2599.6 601.9C2598.5 603 2597 603.6 2595.5 603.6C2594 603.6 2592.5 603 2591.5 601.9C2589.2 599.7 2589.2 596 2591.4 593.7C2592.5 592.6 2594 592 2595.5 592ZM2600.6 609V647.3H2590.3V609H2600.6Z" fill="black"/>
<path d="M2619.1 613.1C2621 611.3 2623.2 609.9 2625.6 609C2627.8 608.1 2630.2 607.6 2632.6 607.5C2637.8 607.5 2641.5 609 2643.7 612.1C2646 615.4 2647.1 619.3 2647 623.3V647.3H2636.7V623.8C2636.8 621.8 2636.2 619.8 2635 618.2C2633.7 616.8 2631.8 616.1 2629.9 616.3C2628.3 616.3 2626.7 616.7 2625.3 617.5C2623.7 618.2 2622.3 619.1 2620.9 620.2V647.5H2610.6V609H2616L2619.1 613.1Z" fill="black"/>
<path d="M2693 609V647.3C2693.1 651.7 2691.4 655.9 2688.3 659C2685.2 662.1 2680.2 663.7 2673.4 663.7C2671 663.6 2668.6 663.2 2666.3 662.6C2663.6 662 2660.9 660.9 2658.5 659.4L2661.6 652.1C2663.6 653.1 2665.6 653.9 2667.7 654.6C2669.5 655.1 2671.3 655.4 2673.1 655.5C2676.2 655.5 2678.5 654.7 2680.1 653.3C2681.8 651.8 2682.7 649.6 2682.5 647.3V645.3C2680.9 646.3 2679.1 647 2677.3 647.6C2675.6 648.1 2673.9 648.4 2672.2 648.4C2666.6 648.4 2662.3 646.4 2659.3 642.6C2656.3 638.8 2654.8 633.9 2654.8 628.1C2654.6 622.8 2656.3 617.7 2659.6 613.6C2662.8 609.7 2667.1 607.8 2672.7 607.8C2674.9 607.9 2677 608.3 2679.1 609C2681.3 609.7 2683.4 610.9 2685.2 612.4L2687.6 609.2L2693 609ZM2675 616.3C2671.4 616.3 2668.9 617.6 2667.5 620.1C2666.1 622.5 2665.4 625.2 2665.4 627.9C2665.4 630.7 2666 633.5 2667.3 636C2668.6 638.4 2671.1 639.6 2675 639.6C2676.3 639.6 2677.6 639.3 2678.8 638.8C2680.1 638.3 2681.4 637.6 2682.6 636.9V619C2681.4 618.2 2680.2 617.5 2678.8 617C2677.6 616.6 2676.3 616.3 2675 616.3Z" fill="black"/>
<path d="M3079 540.8C3081 541.8 3083.1 542.7 3085.2 543.3C3087.5 544.1 3089.9 544.5 3092.4 544.6C3095.6 544.6 3098 544.1 3099.6 543.1C3101.1 542.2 3102.1 540.5 3102 538.8C3102 537 3100.9 535.4 3098.8 534C3096.5 532.5 3094.2 531.2 3091.7 529.9C3087.9 527.9 3084.2 525.6 3080.8 523C3077.4 520.4 3075.4 516.3 3075.7 512C3075.7 508 3077.5 504.3 3080.6 501.8C3083.8 499 3088.3 497.7 3094.2 497.7C3096.9 497.7 3099.7 498.1 3102.3 499C3104.7 499.7 3107.1 500.7 3109.4 501.8L3106 510C3104.4 509.2 3102.6 508.5 3100.7 507.8C3098.7 507.1 3096.5 506.7 3094.4 506.7C3092.4 506.6 3090.4 507.1 3088.7 508C3087.2 508.8 3086.3 510.4 3086.4 512.1C3086.4 514.2 3087.6 516.1 3089.4 517.1C3091.4 518.4 3093.8 519.8 3096.5 521.3C3100.4 523.3 3104 525.6 3107.5 528.2C3110.9 530.7 3112.9 534.8 3112.7 539C3112.7 543.1 3110.8 547.1 3107.5 549.6C3104.1 552.4 3099.1 553.8 3092.6 553.8C3089.6 553.7 3086.7 553.2 3083.9 552.3C3080.3 551.3 3078 550.3 3076.7 549.2L3079 540.8Z" fill="black"/>
<path d="M3138.6 553.6C3132.5 553.5 3127.8 551.7 3124.4 548.1C3121 544.5 3119.3 539.6 3119.3 533.4C3119.3 527.3 3121.1 522.4 3124.6 518.8C3128.2 515.2 3133 513.3 3139.2 513.3C3145.6 513.3 3150.5 515.2 3154 519C3157.5 522.8 3159.3 527.7 3159.2 533.8C3159.2 539.9 3157.3 544.7 3153.5 548.3C3149.9 551.8 3144.9 553.6 3138.6 553.6ZM3148.8 533.8C3148.8 530.2 3148 527.3 3146.4 525.2C3144.8 523.1 3142.2 521.9 3139.6 522.1C3137 522 3134.4 523 3132.6 524.9C3130.9 526.7 3130.1 529.6 3130.1 533.4C3130.1 537.2 3130.8 540.1 3132.3 542C3133.8 543.9 3136 544.9 3139 544.9C3141.7 545 3144.2 544.1 3146.2 542.2C3147.8 540.4 3148.8 537.6 3148.8 533.8Z" fill="black"/>
<path d="M3178.3 496.9V552.7H3168.1V497.8L3178.3 496.9Z" fill="black"/>
<path d="M3215.9 548.9C3212.2 552.2 3207.5 554 3202.6 554.3C3197.4 554.3 3193.7 552.8 3191.5 549.7C3189.3 546.4 3188.1 542.5 3188.2 538.5V514.4H3198.6V538C3198.5 540 3199.1 542 3200.3 543.6C3201.6 545 3203.5 545.7 3205.4 545.5C3206.9 545.5 3208.4 545.1 3209.8 544.5C3211.3 543.8 3212.7 543.1 3214 542.1V514.3H3224.3V552.6H3218.9L3215.9 548.9Z" fill="black"/>
<path d="M3257.8 551.9C3256.7 552.7 3255.5 553.3 3254.2 553.6C3252.9 554 3251.5 554.2 3250.1 554.3C3245.4 554.3 3241.6 553.1 3238.9 550.7C3236.2 548.3 3234.8 544.9 3234.8 540.5V522.4H3229.7V514.5H3234.8V505.4L3245 503.6V514.5H3252L3255.2 522.4H3245V538.7C3244.9 540.5 3245.4 542.2 3246.4 543.6C3247.4 544.9 3248.9 545.6 3250.6 545.5C3251.3 545.5 3252 545.4 3252.7 545.3C3253.4 545.1 3254.2 544.9 3254.8 544.5L3257.8 551.9Z" fill="black"/>
<path d="M3268.6 497.3C3270.2 497.3 3271.6 497.9 3272.7 499C3275 501.3 3275 504.9 3272.7 507.2C3271.6 508.3 3270.1 508.9 3268.6 508.9C3267.1 508.9 3265.7 508.3 3264.6 507.2C3262.4 504.9 3262.4 501.3 3264.6 499C3265.6 497.9 3267.1 497.3 3268.6 497.3ZM3273.7 514.3V552.6H3263.4V514.3H3273.7Z" fill="black"/>
<path d="M3301.4 553.6C3295.3 553.5 3290.6 551.7 3287.2 548.1C3283.8 544.5 3282.1 539.6 3282.1 533.4C3282.1 527.3 3283.9 522.4 3287.4 518.8C3291 515.2 3295.8 513.3 3302 513.3C3308.4 513.3 3313.3 515.2 3316.8 519C3320.3 522.8 3322.1 527.7 3322 533.8C3322 539.9 3320.1 544.7 3316.3 548.3C3312.6 551.8 3307.6 553.6 3301.4 553.6ZM3311.5 533.8C3311.5 530.2 3310.7 527.3 3309.1 525.2C3307.5 523.1 3304.9 521.9 3302.3 522.1C3299.7 522 3297.1 523 3295.3 524.9C3293.6 526.7 3292.8 529.6 3292.8 533.4C3292.8 537.2 3293.5 540.1 3295 542C3296.4 544 3298.7 544.9 3301.7 544.9C3304.4 545 3306.9 544.1 3308.9 542.2C3310.6 540.4 3311.5 537.6 3311.5 533.8Z" fill="black"/>
<path d="M3338.8 518.4C3340.7 516.6 3342.9 515.2 3345.3 514.3C3347.5 513.4 3349.9 512.9 3352.3 512.8C3357.5 512.8 3361.2 514.3 3363.4 517.4C3365.7 520.7 3366.8 524.6 3366.7 528.6V552.6H3356.4V529.1C3356.5 527.1 3355.9 525.1 3354.7 523.5C3353.4 522.1 3351.5 521.4 3349.6 521.6C3348 521.6 3346.4 522 3345 522.8C3343.4 523.5 3342 524.4 3340.6 525.5V552.8H3330.3V514.5H3335.7L3338.8 518.4Z" fill="black"/>
<path d="M3080.9 641.3V587.5H3097.7C3103 587.4 3108.2 588.7 3112.7 591.5C3116.9 594.2 3119 598.6 3118.9 604.7C3118.9 610.9 3116.6 615.4 3112.1 618.2C3107.6 621.1 3102.3 622.6 3096.9 622.5H3091V641.2L3080.9 641.3ZM3097.4 596.1H3091.1V614.1H3097.6C3100.2 614.2 3102.9 613.5 3105 612C3106.9 610.6 3107.9 608.4 3108.2 605.4C3108.2 601.9 3107.3 599.5 3105.3 598.1C3103.4 596.8 3100.8 596.1 3097.4 596.1Z" fill="black"/>
<path d="M3132.3 586C3133.9 586 3135.4 586.6 3136.4 587.7C3138.7 590 3138.7 593.6 3136.4 595.9C3135.3 597 3133.8 597.6 3132.3 597.6C3130.8 597.6 3129.4 597 3128.3 595.9C3126.1 593.6 3126.1 590 3128.3 587.7C3129.3 586.6 3130.8 586 3132.3 586ZM3137.4 603V641.3H3127.1V603H3137.4Z" fill="black"/>
<path d="M3171.1 640.5C3170 641.3 3168.8 641.9 3167.5 642.2C3166.2 642.6 3164.8 642.8 3163.4 642.9C3158.7 642.9 3154.9 641.7 3152.2 639.3C3149.5 636.9 3148.1 633.5 3148.1 629.1V611H3143V603.1H3148.1V594L3158.3 592.2V603.1H3165.3L3168.5 611H3158.4V627.3C3158.3 629.1 3158.8 630.8 3159.8 632.2C3160.8 633.5 3162.4 634.2 3164 634.1C3164.7 634.1 3165.3 634 3166 633.9C3166.7 633.7 3167.5 633.5 3168.1 633.1L3171.1 640.5Z" fill="black"/>
<path d="M3195 610.8C3192.3 610.7 3189.8 611.9 3188.2 614.1C3186.5 616.5 3185.6 619.4 3185.8 622.3C3185.7 625.2 3186.5 628.1 3188.2 630.4C3189.8 632.5 3192.4 633.7 3195 633.6C3196.6 633.6 3198.3 633.4 3199.9 632.9C3201.6 632.4 3203.2 631.7 3204.8 631L3207.7 638.4C3205.8 639.8 3203.5 640.9 3201.2 641.4C3199.1 642 3197 642.3 3194.9 642.4C3188.7 642.4 3183.8 640.6 3180.4 636.9C3177 633.2 3175.2 628.4 3175.2 622.3C3175.2 616.2 3176.9 611.3 3180.4 607.6C3183.9 603.9 3188.8 602.1 3195 602.1C3197.1 602.2 3199.2 602.5 3201.2 603.1C3203.6 603.7 3205.8 604.7 3207.8 606.1L3204.9 613.5C3203.3 612.7 3201.6 612.1 3200 611.6C3198.3 610.9 3196.7 610.7 3195 610.8Z" fill="black"/>
<path d="M3226 605.5C3227.7 604.2 3229.7 603.1 3231.8 602.5C3233.7 601.9 3235.7 601.5 3237.7 601.5C3242.9 601.5 3246.6 603 3248.8 606.1C3251.1 609.4 3252.2 613.3 3252.1 617.3V641.3H3241.8V617.7C3241.9 615.7 3241.3 613.7 3240.1 612.1C3238.8 610.7 3236.9 610 3235 610.2C3233.4 610.2 3231.8 610.6 3230.4 611.4C3228.9 612.1 3227.4 613 3226 614.1V641.4H3215.8V586.5L3226 585.6V605.5Z" fill="black"/>
<path d="M3266.6 586C3268.2 586 3269.7 586.6 3270.7 587.7C3273 590 3273 593.6 3270.7 595.9C3269.6 597 3268.1 597.6 3266.6 597.6C3265.1 597.6 3263.7 597 3262.6 595.9C3260.4 593.6 3260.4 590 3262.6 587.7C3263.6 586.6 3265.1 586 3266.6 586ZM3271.7 603V641.3H3261.4V603H3271.7Z" fill="black"/>
<path d="M3290.1 607.1C3292 605.3 3294.2 603.9 3296.6 603C3298.8 602.1 3301.2 601.6 3303.6 601.5C3308.8 601.5 3312.5 603 3314.7 606.1C3317 609.4 3318.1 613.3 3318 617.3V641.3H3307.7V617.8C3307.8 615.8 3307.2 613.8 3306 612.2C3304.7 610.8 3302.8 610.1 3300.9 610.3C3299.3 610.3 3297.7 610.7 3296.3 611.5C3294.8 612.2 3293.3 613.1 3291.9 614.2V641.5H3281.6V603H3287L3290.1 607.1Z" fill="black"/>
<path d="M3364.1 603V641.3C3364.2 645.7 3362.5 649.9 3359.4 653C3356.3 656.1 3351.3 657.7 3344.5 657.7C3342.1 657.6 3339.7 657.2 3337.4 656.6C3334.7 656 3332 654.9 3329.6 653.4L3332.7 646.1C3334.7 647.1 3336.7 647.9 3338.8 648.6C3340.6 649.1 3342.4 649.4 3344.3 649.5C3347.4 649.5 3349.7 648.7 3351.3 647.3C3353 645.8 3353.9 643.6 3353.7 641.3V639.3C3352.1 640.3 3350.3 641 3348.5 641.5C3346.8 642 3345.1 642.3 3343.4 642.3C3337.8 642.3 3333.5 640.3 3330.5 636.5C3327.5 632.6 3326 627.8 3326 622C3326 616.2 3327.6 611.4 3330.8 607.5C3334 603.6 3338.3 601.6 3343.9 601.7C3346.1 601.8 3348.3 602.2 3350.3 602.9C3352.5 603.6 3354.6 604.8 3356.4 606.3L3358.8 603.1L3364.1 603ZM3346.1 610.3C3342.5 610.3 3340 611.6 3338.6 614.1C3337.2 616.5 3336.5 619.2 3336.5 621.9C3336.4 624.7 3337.1 627.5 3338.4 630C3339.7 632.4 3342.2 633.6 3346.1 633.5C3347.4 633.5 3348.7 633.2 3349.9 632.7C3351.2 632.2 3352.5 631.5 3353.7 630.8V613C3352.5 612.2 3351.3 611.5 3349.9 611C3348.7 610.5 3347.4 610.3 3346.1 610.3Z" fill="black"/>
<path d="M379.521 494.02L512.366 221.574L246.675 221.574L379.521 494.02ZM379.521 533.958L214.042 203L545 203L379.521 533.958Z" fill="black"/>
<path d="M415.855 438.751L322.478 274.582H436.517L402.417 340.712" stroke="black" stroke-width="26"/>
<rect x="215.25" y="211.25" width="321.5" height="321.5" stroke="black" stroke-width="16.5"/>
<rect x="575" y="361" width="234" height="13" fill="black"/>
</g>
<defs>
<clipPath id="clip0_16_2">
<rect width="3413.7" height="716.3" fill="white"/>
</clipPath>
</defs>
</svg>
