<svg width="47" height="40" viewBox="0 0 47 40" fill="none" xmlns="http://www.w3.org/2000/svg">
<path d="M11.021 39.9987C8.10999 39.9955 5.31917 38.8377 3.2608 36.7793C1.20243 34.7209 0.0446391 31.9301 0.0414441 29.0191V28.9642C0.0414441 28.9279 0.03675 28.8736 0.0327265 28.8019C-0.192591 24.8146 0.45922 14.049 11.3516 0.254317C11.4497 0.130424 11.5884 0.0451546 11.7432 0.0135496C11.898 -0.0180553 12.059 0.00603505 12.1978 0.0815711C12.3366 0.157107 12.4443 0.279236 12.5019 0.426413C12.5594 0.57359 12.5631 0.73636 12.5123 0.88601C12.4815 0.97721 9.50477 9.894 11.5387 18.053C14.4034 18.1875 17.1018 19.4374 19.0568 21.5356C21.0119 23.6338 22.0684 26.4137 22.0004 29.2807C21.9324 32.1478 20.7454 34.8745 18.6931 36.8776C16.6408 38.8808 13.8861 40.0015 11.0183 40L11.021 39.9987ZM1.38262 29.0574C1.39004 30.962 1.96162 32.8218 3.0252 34.4019C4.08877 35.9819 5.59666 37.2115 7.35847 37.9352C9.12029 38.659 11.0571 38.8445 12.9242 38.4684C14.7914 38.0922 16.5053 37.1713 17.8495 35.8219C19.1937 34.4725 20.1079 32.755 20.4768 30.8864C20.8456 29.0178 20.6526 27.0817 19.922 25.3228C19.1914 23.5638 17.956 22.0607 16.3718 21.0032C14.7876 19.9458 12.9256 19.3815 11.021 19.3815C10.8741 19.3814 10.7313 19.3332 10.6145 19.2441C10.4978 19.1551 10.4134 19.0302 10.3745 18.8886C8.83217 13.2758 9.58859 7.38802 10.3551 3.81513C1.71523 15.9179 1.17272 25.1559 1.37457 28.7268C1.38368 28.8367 1.38637 28.9471 1.38262 29.0574ZM35.9574 39.9987C33.0464 39.9955 30.2556 38.8377 28.1972 36.7793C26.1389 34.7209 24.9811 31.9301 24.9779 29.0191V28.9642C24.9779 28.9279 24.9732 28.8736 24.9692 28.8019C24.7439 24.8146 25.3957 14.049 36.288 0.254317C36.3861 0.130424 36.5248 0.0451546 36.6796 0.0135496C36.8345 -0.0180553 36.9955 0.00603505 37.1343 0.0815711C37.2731 0.157107 37.3808 0.279236 37.4383 0.426413C37.4958 0.57359 37.4996 0.73636 37.4488 0.88601C37.4179 0.97721 34.4412 9.894 36.4751 18.053C39.3398 18.1875 42.0382 19.4374 43.9933 21.5356C45.9483 23.6338 47.0049 26.4137 46.9369 29.2807C46.8689 32.1478 45.6818 34.8745 43.6295 36.8776C41.5772 38.8808 38.8226 40.0015 35.9547 40L35.9574 39.9987ZM26.3191 29.0574C26.3265 30.962 26.8981 32.8218 27.9616 34.4019C29.0252 35.9819 30.5331 37.2115 32.2949 37.9352C34.0567 38.659 35.9935 38.8445 37.8607 38.4684C39.7278 38.0922 41.4417 37.1713 42.7859 35.8219C44.1301 34.4725 45.0443 32.755 45.4132 30.8864C45.7821 29.0178 45.589 27.0817 44.8584 25.3228C44.1278 23.5638 42.8925 22.0607 41.3083 21.0032C39.7241 19.9458 37.8621 19.3815 35.9574 19.3815C35.8106 19.3814 35.6678 19.3332 35.551 19.2441C35.4342 19.1551 35.3499 19.0302 35.311 18.8886C33.7686 13.2758 34.525 7.38802 35.2915 3.81513C26.6517 15.9179 26.1085 25.1559 26.3103 28.7268C26.3197 28.8367 26.3226 28.9471 26.3191 29.0574Z" fill="#060606"/>
</svg>
