<svg width="184" height="66" viewBox="0 0 184 66" fill="none" xmlns="http://www.w3.org/2000/svg">
<path d="M85.2768 11C85.8351 11.0486 86.4175 11.0972 86.9757 11.1701C89.3576 11.4368 91.6743 12.1228 93.8197 13.1969C96.0314 14.2856 98.042 15.7461 99.7648 17.5154C99.8373 17.6126 99.9822 17.6612 100.105 17.6369C101.302 17.458 102.513 17.401 103.721 17.4668C106.184 17.5885 108.596 18.2197 110.806 19.321C115.079 21.4693 118.088 24.8133 119.835 29.3043C120.473 30.9685 120.849 32.7221 120.952 34.5025C120.952 34.624 120.976 34.7212 121 34.8184V36.697C120.952 37.1854 120.879 37.6496 120.831 38.1381C120.589 40.1138 120.028 42.0167 119.132 43.8004C117.141 47.8006 114.083 50.7289 109.982 52.5346C108.11 53.3649 106.105 53.8529 104.062 53.9757C103.984 53.9757 103.917 53.9854 103.854 54H83.1284C82.6862 53.9587 82.2536 53.9149 81.8065 53.8542C79.4409 53.5871 77.1409 52.9009 75.0133 51.8274C71.3794 50.0438 68.3239 47.2594 66.2021 43.798C64.749 41.5147 63.7753 38.9568 63.3407 36.2814C63.2199 35.4551 63.1474 34.5997 63.0483 33.7686C63.0483 33.6471 63.0242 33.5498 63 33.4526V31.5231C63.0483 30.9641 63.1208 30.4246 63.1208 29.9143C63.3862 27.5346 64.0686 25.2209 65.1363 23.0805C66.9362 19.4296 69.7195 16.3603 73.1693 14.2224C75.4282 12.7789 77.9531 11.8077 80.5933 11.367C81.4682 11.2211 82.3164 11.1482 83.1912 11.051C83.3121 11.051 83.4087 11.0267 83.5296 11.0024L85.2768 11ZM84.3851 15.1143C79.2472 15.1265 74.8876 17.1217 71.3472 21.0805C69.3426 23.3673 67.9928 26.1584 67.4418 29.156C67.0793 31.0127 67.0044 32.9156 67.2727 34.7941C67.7318 38.0652 68.9692 40.9911 71.0813 43.555C73.5356 46.5849 76.9421 48.6846 80.7407 49.509C82.7726 49.9563 84.8671 50.0385 86.9274 49.752C89.5737 49.4118 92 48.5345 94.1847 46.9476C94.7643 46.5305 95.3076 46.0647 95.8087 45.555C98.7715 42.6267 101.705 39.674 104.668 36.7456C105.396 36.0165 105.444 35.2097 105.103 34.4758C104.925 34.084 104.626 33.7606 104.25 33.5539C103.874 33.3472 103.442 33.2682 103.018 33.3287C102.51 33.3773 102.119 33.6714 101.756 34.0383C99.0857 36.7456 96.4394 39.4066 93.7714 42.1163C91.7683 44.1706 89.1348 45.4857 86.2967 45.8491C81.589 46.4834 77.5846 45.0204 74.4067 41.4796C72.6836 39.5524 71.6396 37.234 71.2022 34.6483C70.5738 30.7916 71.468 27.3261 73.8484 24.2762C75.9582 21.5665 78.7252 19.8824 82.0747 19.2724C85.4967 18.6649 88.723 19.321 91.6592 21.202C91.7317 21.2506 91.9009 21.2749 91.9758 21.2263C93.0434 20.4321 94.1807 19.7374 95.3737 19.1509C95.3737 19.1509 95.3978 19.1266 95.422 19.078C94.4899 18.2976 93.4724 17.6265 92.3891 17.0779C90.4173 16.0015 88.2431 15.3525 86.0067 15.1727C85.4679 15.1317 84.9278 15.1122 84.3875 15.1143H84.3851ZM102.764 21.586C99.2476 21.5276 96.0189 22.8618 93.1407 25.5472C91.0768 27.4962 89.1846 29.523 87.1957 31.5498C86.6374 32.1087 86.5166 32.8184 86.7824 33.5741C87.0482 34.3299 87.6572 34.6969 88.433 34.8184C88.7136 34.8569 88.9992 34.8261 89.2653 34.7287C89.5314 34.6313 89.77 34.4703 89.9603 34.2595C91.855 32.3542 93.7472 30.4756 95.6153 28.5485C97.1451 26.9616 98.9648 26.0575 101.101 25.6663C105.833 24.8133 110.613 27.5716 112.312 32.0844C114.497 37.8197 111.051 44.3108 105.106 45.679C103.941 45.9463 102.701 45.9463 101.488 45.922C101.149 45.8977 100.956 46.0192 100.714 46.2379C99.5472 47.3874 98.3099 48.5345 97.0967 49.6791C97.0242 49.752 96.9276 49.8249 96.8551 49.8978C97.0001 49.8978 97.0967 49.9221 97.1934 49.9221H102.752C105.959 49.9215 109.07 48.8212 111.571 46.803C114.072 44.7847 115.814 41.9691 116.51 38.821C118.088 31.6713 114.011 24.422 107.022 22.3004C105.643 21.8611 104.21 21.6205 102.764 21.586Z" fill="#9F9F9F"/>
</svg>
