<svg width="184" height="66" viewBox="0 0 184 66" fill="none" xmlns="http://www.w3.org/2000/svg">
<path d="M107.578 33.0572C107.578 37.3516 107.6 41.6482 107.578 45.9448C107.585 46.6055 107.438 47.2587 107.149 47.8526C106.859 48.4466 106.435 48.965 105.911 49.3668C105.386 49.7685 104.776 50.0426 104.127 50.1673C103.478 50.292 102.809 50.2639 102.173 50.0852C100.34 49.5726 99.0532 47.7972 99.0378 45.6852C99.0202 43.1882 99.0378 40.689 99.0378 38.1898C99.0378 32.2938 99.0378 26.3978 99.0378 20.5018C99.0041 19.4719 99.2933 18.4573 99.865 17.6C100.356 16.8652 101.069 16.3066 101.9 16.0054C102.732 15.7043 103.637 15.6764 104.485 15.9258C105.349 16.1652 106.115 16.6748 106.669 17.3802C107.223 18.0855 107.537 18.9496 107.565 19.8462C107.609 22.4532 107.583 25.0624 107.585 27.6716V33.0638L107.578 33.0572Z" fill="#9F9F9F"/>
<path d="M96.3428 39.5296C96.3428 41.657 96.3626 43.7844 96.3428 45.9096C96.3098 48.796 93.6874 50.8288 90.9528 50.0896C89.4128 49.6826 88.5812 48.587 88.1148 47.1526C87.9018 46.5058 87.7927 45.8294 87.7914 45.1484C87.7914 41.1356 87.7606 37.1228 87.7914 33.11C87.7862 32.5377 87.8944 31.9701 88.1099 31.44C88.3255 30.9098 88.6439 30.4276 89.047 30.0213C89.45 29.615 89.9296 29.2926 90.458 29.0728C90.9864 28.8531 91.5531 28.7402 92.1254 28.7408C94.5168 28.7694 96.3252 30.6812 96.3428 33.2024V39.5186V39.5296Z" fill="#9F9F9F"/>
<path d="M80.6656 50.237C79.8216 50.2279 78.9991 49.9692 78.3018 49.4936C77.6045 49.0179 77.0635 48.3466 76.747 47.5641C76.4305 46.7816 76.3527 45.9229 76.5232 45.0963C76.6938 44.2696 77.1051 43.5119 77.7055 42.9185C78.3059 42.3252 79.0684 41.9228 79.897 41.762C80.7256 41.6012 81.5833 41.6892 82.362 42.0148C83.1407 42.3405 83.8056 42.8894 84.273 43.5922C84.7404 44.2951 84.9894 45.1205 84.9886 45.9646C84.988 46.5298 84.8755 47.0892 84.6574 47.6106C84.4393 48.1321 84.1201 48.6051 83.7181 49.0024C83.3161 49.3996 82.8394 49.7133 82.3154 49.9252C81.7915 50.1371 81.2307 50.2431 80.6656 50.237Z" fill="#9F9F9F"/>
</svg>
