<svg width="184" height="66" viewBox="0 0 184 66" fill="none" xmlns="http://www.w3.org/2000/svg">
<g clip-path="url(#clip0_19_195)">
<path fill-rule="evenodd" clip-rule="evenodd" d="M103.568 22.2857H102.196C101.511 22.2857 101.004 22.7429 101.004 23.4286V40.6286H95.3391C91.8211 40.6286 90.4198 40.4286 90.4198 35.0571V23.4C90.4198 22.7429 89.9428 22.2571 89.2273 22.2571H87.9155C87.2298 22.2571 86.6931 22.7429 86.6931 23.4V35.0286C86.6931 42.6571 89.585 44 95.6074 44C97.7838 44 100.765 44 103.597 43.6286H103.657C104.373 43.4571 104.73 43.0857 104.73 42.4857V23.4C104.76 22.7429 104.283 22.2857 103.568 22.2857ZM119.935 22.3143L119.846 22.2857C119.041 22.1143 116.865 22 115.791 22C111.975 22 109.948 23.5429 109.948 26.4571V42.6857C109.948 43.3429 110.425 43.8286 111.14 43.8286H112.512C113.197 43.8286 113.704 43.3714 113.704 42.6857V26.7714C113.704 26.0571 113.883 25.4 116.179 25.4H119.548C119.876 25.4286 120.204 25.3429 120.442 25.1429C120.711 24.9143 120.86 24.6 120.86 24.2571V23.4571C120.8 22.9143 120.472 22.4857 119.935 22.3143Z" fill="#9F9F9F"/>
<path fill-rule="evenodd" clip-rule="evenodd" d="M131.208 22.0043C127.272 22.0043 125.066 22.7186 123.784 24.4329C122.442 26.2043 122.204 29.0329 122.204 32.9757C122.204 40.7471 123.456 43.9757 131.208 43.9757C132.132 43.9757 135.322 43.9471 137.17 43.7471C137.886 43.6329 138.214 43.09 138.214 42.6329V41.7757C138.214 41.1186 137.677 40.6043 136.992 40.6043H131.208C126.825 40.6043 126.05 39.6043 125.931 33.9757V32.1471C125.961 26.3757 126.765 25.3757 131.208 25.3757C135.322 25.3757 136.097 26.2614 136.246 31.3471H129.717V34.7757H138.303C140.003 34.7757 140.003 33.6329 140.003 33.2614V32.1757C139.854 24.29 137.886 22.0043 131.208 22.0043Z" fill="#9F9F9F"/>
<path fill-rule="evenodd" clip-rule="evenodd" d="M82.5193 22.8C82.3404 22.4571 81.9826 22.2286 81.5056 22.2286H79.7466C79.2398 22.2286 78.8522 22.4286 78.6733 22.7714L76.0795 26.4L78.3454 29.3714L82.3106 23.9143C82.7578 23.4286 82.5789 22.9714 82.5193 22.8Z" fill="#9F9F9F"/>
<path fill-rule="evenodd" clip-rule="evenodd" d="M68.8348 22.7429C68.4472 22.2286 67.9106 22.2286 67.7317 22.2286H66.0323C65.5851 22.2286 65.2273 22.4286 65.0485 22.7714C64.8696 23.1143 64.8994 23.5429 65.1677 23.9143L71.518 32.3714L64.1839 42.1143C63.9155 42.4857 63.8857 42.8857 64.0944 43.2286C64.2733 43.5714 64.6311 43.7714 65.0783 43.7714H66.8373C67.2845 43.7714 67.6721 43.5429 67.8808 43.2L76.0497 32.4L68.8348 22.7429Z" fill="#9F9F9F"/>
<path fill-rule="evenodd" clip-rule="evenodd" d="M83.3838 42.4286L78.9714 36.6L77.0335 39.1714L80.5217 43.6571L80.6111 43.6857C80.7602 43.7429 80.9093 43.7714 81.0584 43.7714H82.549C82.9068 43.7714 83.2049 43.6286 83.3838 43.3429C83.5627 43.0857 83.5627 42.7429 83.3838 42.4286Z" fill="#9F9F9F"/>
<path fill-rule="evenodd" clip-rule="evenodd" d="M57.4758 34.6286V40.3143C55.7466 40.5714 53.0932 40.6286 52.1988 40.6286C48.2037 40.6286 47.7863 39.5714 47.7863 37.3714C47.7863 35.2857 48.5913 34.6286 51.1255 34.6286H57.4758ZM51.9901 22C50.7677 22 49.0981 22.0286 46.9814 22.2857H46.8919C46.2957 22.4571 45.9975 22.8571 45.9975 23.4286V24.2571C45.9975 24.9429 46.4447 25.4 47.1901 25.4H52.0199C55.8957 25.4 57.4758 26.4 57.4758 28.8857V31.2857H51.0957C46.1168 31.2857 44 33.1143 44 37.3714C44 42.1429 46.2062 44 51.841 44C54.1366 44 58.3404 43.8286 59.8907 43.3714C61.2025 43.0286 61.2025 42.0571 61.2025 41.7429V28.6571C61.2025 24.1714 58.1913 22 51.9901 22Z" fill="#9F9F9F"/>
</g>
<defs>
<clipPath id="clip0_19_195">
<rect width="96" height="22" fill="white" transform="translate(44 22)"/>
</clipPath>
</defs>
</svg>
