<svg width="184" height="66" viewBox="0 0 184 66" fill="none" xmlns="http://www.w3.org/2000/svg">
<path d="M112.405 10.045L108.578 51.4912L91.9998 55.955L75.4212 51.4912L71.5955 10.045H112.405ZM104.694 18.4724H91.9848H79.0505L79.6691 23.4775H91.9848H92.6766L91.9848 23.7654L80.1192 28.7074L80.5127 33.5996L91.9848 33.6368L98.1336 33.6563L97.74 40.1795L91.9848 41.7998V41.7947L91.9376 41.8078L86.3795 40.4047L86.0422 36.3555H86.0238H80.8684H80.8502L81.5251 44.1725L91.9849 47.2657V47.2602L92.0038 47.2657L102.408 44.2288L103.757 28.7074H91.9849H91.9559L91.9849 28.6948L104.188 23.4775L104.694 18.4724Z" fill="#9F9F9F"/>
</svg>
