<svg width="184" height="66" viewBox="0 0 184 66" fill="none" xmlns="http://www.w3.org/2000/svg">
<g clip-path="url(#clip0_19_189)">
<rect width="31" height="45" transform="translate(78 11)" fill="white"/>
<path d="M105.213 26.4647C107.478 24.9663 108.982 22.3714 108.982 19.4294C108.982 14.7879 105.231 11.0236 100.648 11.0236H86.3343C81.7323 11.0236 78 14.8062 78 19.4294C78 22.3714 79.5038 24.9663 81.7686 26.4647C79.5038 27.9631 78 30.558 78 33.5C78 36.442 79.5038 39.0369 81.7686 40.5353C79.5038 42.0337 78 44.6286 78 47.5706C78 52.2121 81.7686 55.9764 86.3887 55.9764C91.0631 55.9764 94.8679 52.1573 94.8679 47.4792V39.713C96.3536 41.0652 98.3285 41.9058 100.485 41.9058H100.666C105.268 41.9058 109 38.1232 109 33.5C108.982 30.558 107.478 27.9631 105.213 26.4647ZM92.1321 47.4792C92.1321 50.6406 89.5593 53.2354 86.3887 53.2354C83.2724 53.2354 80.7358 50.6954 80.7358 47.5706C80.7358 44.4458 83.2542 41.9241 86.3343 41.9058H92.1321V47.4792ZM92.1321 39.1648H86.3343C83.2361 39.1648 80.7358 36.6248 80.7358 33.5C80.7358 30.3752 83.2542 27.8352 86.3524 27.8352H92.1502V39.1648H92.1321ZM92.1321 25.0942H86.3343C83.2361 25.0942 80.7177 22.5542 80.7177 19.4294C80.7177 16.3046 83.2361 13.7646 86.3343 13.7646H92.1321V25.0942ZM94.8498 13.7646H100.648C103.746 13.7646 106.264 16.3046 106.264 19.4294C106.264 22.5542 103.746 25.0942 100.648 25.0942H94.8498V13.7646ZM100.648 39.1648H100.466C97.3682 39.1648 94.8498 36.6248 94.8498 33.5C94.8498 30.3752 97.3682 27.8352 100.466 27.8352H100.648C103.746 27.8352 106.264 30.3752 106.264 33.5C106.264 36.6248 103.746 39.1648 100.648 39.1648Z" fill="#9F9F9F"/>
</g>
<defs>
<clipPath id="clip0_19_189">
<rect width="31" height="45" fill="white" transform="translate(78 11)"/>
</clipPath>
</defs>
</svg>
