<svg width="184" height="66" viewBox="0 0 184 66" fill="none" xmlns="http://www.w3.org/2000/svg">
<path d="M91.5 11C78.5162 11 68 21.3302 68 34.0713C68 44.2668 74.7327 52.9128 84.0681 55.9601C85.2431 56.1774 85.674 55.4641 85.674 54.8508C85.674 54.3028 85.6544 52.8513 85.6446 50.9287C79.1077 52.3206 77.729 47.8333 77.729 47.8333C76.6598 45.1705 75.1146 44.4591 75.1146 44.4591C72.9859 43.0287 75.2791 43.0575 75.2791 43.0575C77.6389 43.219 78.8785 45.4339 78.8785 45.4339C80.974 48.9619 84.3795 47.9429 85.7229 47.3526C85.9344 45.8607 86.5395 44.8436 87.2113 44.2668C81.9923 43.6901 76.507 41.7059 76.507 32.8658C76.507 30.3472 77.4176 28.29 78.9255 26.675C78.6612 26.0925 77.868 23.7469 79.1312 20.5688C79.1312 20.5688 81.0993 19.9497 85.5937 22.9336C87.4737 22.4203 89.4712 22.1665 91.4687 22.155C93.4662 22.1665 95.4637 22.4203 97.3437 22.9336C101.809 19.9497 103.777 20.5688 103.777 20.5688C105.04 23.7469 104.247 26.0925 104.012 26.675C105.51 28.29 106.421 30.3472 106.421 32.8658C106.421 41.729 100.927 43.6805 95.6987 44.2476C96.5212 44.9398 97.2849 46.3548 97.2849 48.5158C97.2849 51.6035 97.2555 54.0837 97.2555 54.8335C97.2555 55.4391 97.6668 56.1601 98.8712 55.9294C108.273 52.9032 115 44.2515 115 34.0713C115 21.3302 104.478 11 91.5 11Z" fill="#9F9F9F"/>
</svg>
