<svg width="184" height="66" viewBox="0 0 184 66" fill="none" xmlns="http://www.w3.org/2000/svg">
<g clip-path="url(#clip0_21_315)">
<path d="M84.602 23.1188C83.4381 23.1188 82.6481 23.232 82.2373 23.3479V30.8289C82.7271 30.9395 83.3248 30.9764 84.1517 30.9764C87.1983 30.9764 89.0785 29.4359 89.0785 26.8395C89.0758 24.5118 87.459 23.1188 84.602 23.1188Z" fill="#9F9F9F"/>
<path d="M112.185 10.0053H71.8176C70.2613 10.0053 69 11.264 69 12.8149V53.1798C69 54.7334 70.2613 55.9947 71.8176 55.9947H112.185C113.739 55.9947 115 54.7334 115 53.1798V12.8176C115 11.264 113.739 10.0053 112.185 10.0053ZM92.42 32.709C90.4688 34.5523 87.5696 35.3791 84.1911 35.3791C83.4354 35.3791 82.7613 35.3423 82.2346 35.2659V44.3295H76.5548V19.3243C78.3217 19.0267 80.8022 18.8003 84.3017 18.8003C87.8329 18.8003 90.3555 19.4744 92.0434 20.8305C93.6682 22.1103 94.7557 24.2168 94.7557 26.6973C94.7557 29.1779 93.9262 31.2765 92.42 32.709ZM100.981 44.7034C98.5686 44.7034 96.4278 44.182 95.0348 43.4263L96.0486 39.329C97.1019 39.9636 99.2848 40.7167 100.981 40.7167C102.705 40.7167 103.422 40.1163 103.422 39.1736C103.422 38.2362 102.858 37.7859 100.717 37.0697C96.9202 35.7925 95.4509 33.7228 95.4877 31.5425C95.4877 28.1246 98.4211 25.5229 102.971 25.5229C105.115 25.5229 107.032 26.0153 108.159 26.5762L107.145 30.5261C106.318 30.0732 104.741 29.4754 103.158 29.4754C101.771 29.4754 100.983 30.0389 100.983 30.979C100.983 31.8427 101.692 32.293 103.948 33.0856C107.445 34.2863 108.915 36.0559 108.949 38.7576C108.949 42.1834 106.237 44.7034 100.981 44.7034Z" fill="#9F9F9F"/>
</g>
<path d="M71 27.1999C71 21.8795 71 19.2192 72.0354 17.1871C72.9462 15.3996 74.3996 13.9462 76.1871 13.0354C78.2192 12 80.8795 12 86.1999 12H97.8C103.121 12 105.781 12 107.813 13.0354C109.6 13.9462 111.054 15.3996 111.965 17.1871C113 19.2192 113 21.8795 113 27.1999V38.8C113 44.1205 113 46.7808 111.965 48.8129C111.054 50.6004 109.6 52.0537 107.813 52.9646C105.781 54 103.121 54 97.8 54H86.1999C80.8795 54 78.2192 54 76.1871 52.9646C74.3996 52.0537 72.9462 50.6004 72.0354 48.8129C71 46.7808 71 44.1205 71 38.8V27.1999Z" fill="#9F9F9F"/>
<path d="M91.3529 38.3945H84.8445L83.5203 42.6135C83.4836 42.7703 83.3393 42.8813 83.1822 42.8735H79.8858C79.6978 42.8735 79.632 42.7676 79.6885 42.5556L85.3235 25.9107C85.3799 25.7373 85.4363 25.5399 85.4925 25.3184C85.5663 24.9327 85.604 24.5409 85.6053 24.1481C85.5891 24.032 85.6911 23.9294 85.8024 23.9457H90.2823C90.4136 23.9457 90.4886 23.9939 90.5076 24.0902L96.9035 42.5846C96.9597 42.7773 96.9035 42.8736 96.7344 42.8735H93.0716C92.9432 42.8882 92.8205 42.8001 92.7899 42.6713L91.3529 38.3945ZM85.8588 34.7534H90.3105C89.5791 32.2541 88.7537 29.7876 88.0847 27.269C87.3629 29.792 86.5754 32.3048 85.8588 34.7534Z" fill="white"/>
<path d="M100.707 27.0087C100.419 27.0206 100.133 26.97 99.8657 26.8605C99.5987 26.751 99.3572 26.5848 99.1571 26.373C98.9576 26.1519 98.8025 25.8927 98.7009 25.61C98.5994 25.3274 98.5533 25.0269 98.5653 24.7259C98.5551 24.4278 98.6063 24.131 98.7155 23.8546C98.8248 23.5782 98.9897 23.3286 99.1994 23.122C99.407 22.9176 99.6521 22.7574 99.9206 22.6508C100.189 22.5441 100.475 22.4931 100.763 22.5007C101.439 22.5007 101.97 22.7078 102.355 23.122C102.549 23.3373 102.7 23.5897 102.8 23.8649C102.899 24.1401 102.944 24.4328 102.932 24.7259C102.944 25.028 102.897 25.3296 102.793 25.6125C102.689 25.8954 102.53 26.154 102.327 26.373C102.114 26.588 101.86 26.7554 101.582 26.8649C101.303 26.9742 101.005 27.0233 100.707 27.0087ZM98.7626 42.5844V28.7715C98.7626 28.5981 98.8374 28.5114 98.988 28.5114H102.454C102.604 28.5114 102.679 28.5981 102.679 28.7715V42.5844C102.679 42.7773 102.604 42.8736 102.454 42.8735H99.0162C98.8472 42.8735 98.7626 42.7772 98.7626 42.5844Z" fill="white"/>
<defs>
<clipPath id="clip0_21_315">
<rect width="46" height="46" fill="white" transform="translate(69 10)"/>
</clipPath>
</defs>
</svg>
