<svg width="184" height="66" viewBox="0 0 184 66" fill="none" xmlns="http://www.w3.org/2000/svg">
<g clip-path="url(#clip0_21_276)">
<path fill-rule="evenodd" clip-rule="evenodd" d="M104.254 52.3939C100.241 52.3939 97.6465 50.4805 96.3815 47.9781L99.9005 45.9397C100.827 47.4531 102.03 48.5643 104.162 48.5643C105.952 48.5643 107.095 47.669 107.095 46.4339C107.095 44.5755 104.615 43.8494 102.865 43.0996C99.7464 41.7725 97.6764 40.1049 97.6764 36.5836C97.6764 33.3429 100.147 30.8729 104.008 30.8729C106.755 30.8729 108.732 31.8296 110.152 34.3297L106.787 36.4916C106.046 35.1645 105.243 34.6396 104.008 34.6396C102.741 34.6396 101.938 35.4428 101.938 36.4916C101.938 37.7888 102.741 38.3134 104.595 39.1161C108.48 40.7813 111.419 42.0895 111.419 46.3721C111.419 50.2637 108.362 52.3939 104.254 52.3939ZM94.3 45.878C94.3 50.3561 91.5423 52.7229 87.7128 52.7229C84.2536 52.7229 82.1813 51.4 81.1624 49.1H81.1279H81.1118H81.1026L84.6193 46.6416C85.2978 47.8445 85.9096 48.6979 87.3908 48.6979C88.8122 48.6979 89.7 47.9782 89.7 45.8185V30.7H94.3V45.878ZM69 56H115V10H69V56Z" fill="#9F9F9F"/>
</g>
<defs>
<clipPath id="clip0_21_276">
<rect width="46" height="46" fill="white" transform="translate(69 10)"/>
</clipPath>
</defs>
</svg>
