<svg width="184" height="66" viewBox="0 0 184 66" fill="none" xmlns="http://www.w3.org/2000/svg">
<g clip-path="url(#clip0_21_304)">
<path d="M84.602 23.1188C83.4381 23.1188 82.6481 23.232 82.2373 23.3479V30.8289C82.7271 30.9395 83.3248 30.9764 84.1517 30.9764C87.1983 30.9764 89.0785 29.4359 89.0785 26.8395C89.0758 24.5118 87.459 23.1188 84.602 23.1188Z" fill="#9F9F9F"/>
<path d="M112.185 10.0053H71.8176C70.2613 10.0053 69 11.264 69 12.8149V53.1798C69 54.7334 70.2613 55.9947 71.8176 55.9947H112.185C113.739 55.9947 115 54.7334 115 53.1798V12.8176C115 11.264 113.739 10.0053 112.185 10.0053ZM92.42 32.709C90.4688 34.5523 87.5696 35.3791 84.1911 35.3791C83.4354 35.3791 82.7613 35.3423 82.2346 35.2659V44.3295H76.5548V19.3243C78.3217 19.0267 80.8022 18.8003 84.3017 18.8003C87.8329 18.8003 90.3555 19.4744 92.0434 20.8305C93.6682 22.1103 94.7557 24.2168 94.7557 26.6973C94.7557 29.1779 93.9262 31.2765 92.42 32.709ZM100.981 44.7034C98.5686 44.7034 96.4278 44.182 95.0348 43.4263L96.0486 39.329C97.1019 39.9636 99.2848 40.7167 100.981 40.7167C102.705 40.7167 103.422 40.1163 103.422 39.1736C103.422 38.2362 102.858 37.7859 100.717 37.0697C96.9202 35.7925 95.4509 33.7228 95.4877 31.5425C95.4877 28.1246 98.4211 25.5229 102.971 25.5229C105.115 25.5229 107.032 26.0153 108.159 26.5762L107.145 30.5261C106.318 30.0732 104.741 29.4754 103.158 29.4754C101.771 29.4754 100.983 30.0389 100.983 30.979C100.983 31.8427 101.692 32.293 103.948 33.0856C107.445 34.2863 108.915 36.0559 108.949 38.7576C108.949 42.1834 106.237 44.7034 100.981 44.7034Z" fill="#9F9F9F"/>
</g>
<defs>
<clipPath id="clip0_21_304">
<rect width="46" height="46" fill="white" transform="translate(69 10)"/>
</clipPath>
</defs>
</svg>
