<svg width="184" height="66" viewBox="0 0 184 66" fill="none" xmlns="http://www.w3.org/2000/svg">
<path d="M109.298 34.0762C109.404 33.6506 109.295 33.2142 108.897 33.0751L107.245 32.324C106.836 32.1542 106.317 32.3836 106.244 32.7752C105.926 33.4577 105.473 34.0159 104.743 34.0268C104.107 34.0268 103.59 33.6846 103.19 33.0001C102.79 32.3157 102.589 31.4236 102.589 30.322C102.589 29.2203 102.79 28.3186 103.19 27.6181C103.59 26.9164 104.107 26.5665 104.743 26.5665C105.542 26.6242 105.921 27.1305 106.244 27.7675C106.415 28.1866 106.879 28.2853 107.245 28.1686L108.897 27.4176C109.279 27.2157 109.451 26.7184 109.247 26.3672C108.28 24.2978 106.777 23.2635 104.742 23.2635C103.039 23.2635 101.661 23.9139 100.612 25.2155C99.5592 26.5172 99.0331 28.2199 99.0331 30.3226C99.0331 32.4253 99.5579 34.1198 100.612 35.4041C101.662 36.6884 103.039 37.3305 104.742 37.3305C106.778 37.3305 108.297 36.2474 109.298 34.0762ZM93.3768 37.3305C96.0306 37.2908 98.0519 35.4662 98.084 33.0745C98.0372 31.8126 97.529 30.8308 96.6317 30.0714C97.4213 29.3248 97.8757 28.309 97.8834 27.3176C97.8193 24.6125 95.5685 23.3333 93.3781 23.3122C91.4747 23.3122 90.0071 24.0632 88.9727 25.5654C88.7388 25.9 88.7709 26.2339 89.0734 26.5678L90.2737 27.6675C90.6595 28.0116 91.0876 27.9475 91.4253 27.6181C91.9259 26.9164 92.527 26.5665 93.2281 26.5665C93.7953 26.5665 94.1285 26.7088 94.2279 26.9914C94.4214 27.4131 94.3656 27.7976 94.2279 28.1443C93.7113 28.6788 92.7205 28.5186 91.9899 28.5186C91.5151 28.5359 90.9056 28.814 90.9056 29.2697V31.0737C90.9056 31.5903 91.5343 31.9318 91.9899 31.8248C92.5411 31.8248 94.0593 31.762 94.2855 32.2247C94.4022 32.492 94.5194 32.7092 94.5194 32.8758C94.5194 33.6436 94.1324 34.0268 93.2967 34.0268C92.4969 34.0268 91.8419 33.659 91.3081 32.9252C90.9806 32.5297 90.473 32.5253 90.1647 32.8246L88.9163 34.0762C88.6158 34.3787 88.5837 34.6952 88.8176 35.0279C89.9526 36.6236 91.6061 37.317 93.3768 37.3305ZM88.4203 24.2542C88.5113 23.7742 88.1582 23.143 87.7198 23.143H85.5165C85.1166 23.143 84.8821 23.5032 84.8148 23.9037L83.7644 29.3402L82.6627 23.864C82.5615 23.4641 82.3122 23.143 81.9117 23.143H80.3095C79.875 23.143 79.625 23.5032 79.5584 23.9037L78.4567 29.3402L77.4044 23.864C77.3384 23.4641 77.0878 23.143 76.6533 23.143H74.5013C73.9514 23.143 73.6887 23.7794 73.7502 24.2542L76.5047 36.5743C76.6053 36.9767 76.8552 37.3805 77.2558 37.3805H79.3584C79.7577 37.3805 80.0089 37.0556 80.1095 36.6531L81.1106 31.5858L82.1116 36.6851C82.1789 37.0863 82.4295 37.3805 82.8627 37.3805H84.9654C85.3672 37.3805 85.6165 36.9761 85.7165 36.5743L88.4203 24.2542ZM113.905 11.0953V44.637L92.0002 54.905L70.0953 44.637V11.0953H113.905Z" fill="#9F9F9F"/>
</svg>
