<svg width="184" height="66" viewBox="0 0 184 66" fill="none" xmlns="http://www.w3.org/2000/svg">
<g clip-path="url(#clip0_21_345)">
<path d="M84.6019 23.1188C83.438 23.1188 82.6481 23.232 82.2373 23.3479V30.8289C82.7271 30.9395 83.3248 30.9764 84.1516 30.9764C87.1983 30.9764 89.0784 29.4359 89.0784 26.8395C89.0758 24.5118 87.459 23.1188 84.6019 23.1188Z" fill="#9F9F9F"/>
<path d="M112.185 10.0053H71.8176C70.2613 10.0053 69 11.264 69 12.8149V53.1798C69 54.7334 70.2613 55.9947 71.8176 55.9947H112.185C113.739 55.9947 115 54.7334 115 53.1798V12.8176C115 11.264 113.739 10.0053 112.185 10.0053ZM92.42 32.709C90.4688 34.5523 87.5696 35.3791 84.1911 35.3791C83.4354 35.3791 82.7613 35.3423 82.2346 35.2659V44.3295H76.5548V19.3243C78.3217 19.0267 80.8022 18.8003 84.3017 18.8003C87.8329 18.8003 90.3555 19.4744 92.0434 20.8305C93.6682 22.1103 94.7557 24.2168 94.7557 26.6973C94.7557 29.1779 93.9262 31.2765 92.42 32.709ZM100.981 44.7034C98.5686 44.7034 96.4278 44.182 95.0348 43.4263L96.0486 39.329C97.1019 39.9636 99.2848 40.7167 100.981 40.7167C102.705 40.7167 103.422 40.1163 103.422 39.1736C103.422 38.2362 102.858 37.7859 100.717 37.0697C96.9202 35.7925 95.4509 33.7228 95.4877 31.5425C95.4877 28.1246 98.4211 25.5229 102.971 25.5229C105.115 25.5229 107.032 26.0153 108.159 26.5762L107.145 30.5261C106.318 30.0732 104.741 29.4754 103.158 29.4754C101.771 29.4754 100.983 30.0389 100.983 30.979C100.983 31.8427 101.692 32.293 103.948 33.0856C107.445 34.2863 108.915 36.0559 108.949 38.7576C108.949 42.1834 106.237 44.7034 100.981 44.7034Z" fill="#9F9F9F"/>
</g>
<path d="M71 27.1999C71 21.8795 71 19.2192 72.0354 17.1871C72.9462 15.3996 74.3996 13.9462 76.1871 13.0354C78.2192 12 80.8795 12 86.1999 12H97.8C103.121 12 105.781 12 107.813 13.0354C109.6 13.9462 111.054 15.3996 111.965 17.1871C113 19.2192 113 21.8795 113 27.1999V38.8C113 44.1205 113 46.7808 111.965 48.8129C111.054 50.6004 109.6 52.0537 107.813 52.9646C105.781 54 103.121 54 97.8 54H86.1999C80.8795 54 78.2192 54 76.1871 52.9646C74.3996 52.0537 72.9462 50.6004 72.0354 48.8129C71 46.7808 71 44.1205 71 38.8V27.1999Z" fill="#9F9F9F"/>
<path d="M92.9698 24.3507L87.7292 33.2223L93.3359 42.6428C93.4525 42.8564 93.3359 42.9036 93.167 42.9036H89.1662C88.8844 42.9036 88.6871 42.8934 88.5745 42.7007C88.1984 41.9493 87.8228 41.2028 87.4474 40.461C87.0715 39.7196 86.6723 38.9634 86.2501 38.1926C85.8274 37.4223 85.4095 36.6422 84.9962 35.852C84.6203 36.6227 84.2023 37.3932 83.7988 38.1638C83.3947 38.9345 82.9955 39.7002 82.6013 40.461C82.2069 41.2223 81.803 41.9784 81.3898 42.7295C81.3145 42.9029 81.1829 42.9207 80.9953 42.9207H77.1354C76.9837 42.9207 76.9654 42.8067 77.0509 42.6717L82.4886 33.5112L77.1917 24.3218C77.0955 24.1907 77.1783 24.051 77.3326 24.0617H81.3052C81.4772 24.0521 81.6293 24.1169 81.7279 24.264C82.066 25.0347 82.4416 25.8054 82.8548 26.5758C83.2678 27.3465 83.6858 28.1076 84.1087 28.8587C84.5314 29.61 84.9493 30.371 85.3061 31.1417C85.6816 30.3519 86.062 29.5814 86.4472 28.8299C86.8321 28.0785 87.2264 27.3224 87.6305 26.5614C88.0343 25.8006 88.424 25.0445 88.7998 24.293C88.8497 24.1281 88.9691 24.0446 89.1379 24.0617H92.8288C92.9698 24.0617 93.028 24.2541 92.9698 24.3507Z" fill="white"/>
<path d="M101.056 43.2788C98.5709 43.3176 95.9683 42.2944 94.66 40.0278C94.0213 38.9395 93.7019 37.5766 93.7021 35.9388C93.6914 34.6125 94.0219 33.3068 94.66 32.1533C96.3065 29.21 99.6236 28.1071 102.774 28.3966V22.7038C102.774 22.5692 102.831 22.5015 102.943 22.5015H106.493C106.591 22.4873 106.676 22.5753 106.663 22.6749V39.7533C106.663 40.4578 106.732 41.16 106.775 41.8628C106.782 41.9828 106.713 42.1016 106.606 42.1518C104.852 42.9021 102.954 43.2701 101.056 43.2788ZM102.774 39.6954V31.8064C100.201 31.0915 97.7026 33.0516 97.7029 35.7654C97.6418 38.5711 100.06 40.5096 102.774 39.6954Z" fill="white"/>
<defs>
<clipPath id="clip0_21_345">
<rect width="46" height="46" fill="white" transform="translate(69 10)"/>
</clipPath>
</defs>
</svg>
