<svg width="45" height="45" viewBox="0 0 45 45" fill="none" xmlns="http://www.w3.org/2000/svg">
<path d="M44.1041 39.9311H36.0101V21.3364H39.863C40.299 21.3364 40.6523 20.983 40.6523 20.5471V17.8211H44.1911H44.1933C44.6292 17.8211 44.9826 17.4677 44.9826 17.0318C44.9826 16.7558 44.841 16.5129 44.6265 16.3718L22.9701 0.211344C22.6899 0.00246876 22.306 0.00246876 22.0259 0.211344L0.33291 16.3992C0.0603851 16.6026 -0.0512899 16.9577 0.0558851 17.2805C0.16301 17.6032 0.464935 17.8211 0.804985 17.8211H4.34371V20.5471C4.34371 20.9831 4.69708 21.3364 5.13301 21.3364H8.98588V39.9311H0.892085C0.456135 39.9311 0.102785 40.2843 0.102785 40.7204V44.159C0.102785 44.5948 0.456135 44.9483 0.892085 44.9483H44.1041C44.54 44.9483 44.8934 44.5948 44.8934 44.159V40.7204C44.8934 40.2843 44.54 39.9311 44.1041 39.9311ZM22.4979 1.82882L41.8136 16.2425H3.18243L22.4979 1.82882ZM32.5716 39.9044V21.6803H34.4315V39.9044H32.5716ZM30.9931 39.9311H25.0066V21.3364H30.9931V39.9311ZM21.5679 21.6803H23.428V39.9044H21.5679V21.6803ZM5.92228 17.8978H39.0738V19.7578H5.92228V17.8978ZM12.4245 21.6803V39.9044H10.5645V21.6803H12.4245ZM14.0031 21.3364H19.9893V39.931H14.0031V21.3364ZM43.3148 43.3697H1.68136V41.5097H43.3148V43.3697Z" fill="white"/>
</svg>
