<svg width="45" height="45" viewBox="0 0 45 45" fill="none" xmlns="http://www.w3.org/2000/svg">
<g clip-path="url(#clip0_2_5215)">
<path d="M42.8975 0.117188H2.10504C1.00891 0.117188 0.117188 1.00881 0.117188 2.10471V42.8975C0.117188 43.9934 1.00891 44.8851 2.10504 44.8851H42.8975C43.9934 44.8851 44.885 43.9934 44.885 42.8975V2.10471C44.885 1.00881 43.9934 0.117188 42.8975 0.117188ZM42.8975 43.3131H2.10504C1.87574 43.3131 1.68921 43.1266 1.68921 42.8975V37.9673L16.3923 23.2642L30.6771 37.5492C30.8306 37.7026 31.0317 37.7794 31.2329 37.7794C31.434 37.7794 31.6353 37.7026 31.7888 37.5492C32.0957 37.2422 32.0957 36.7445 31.7888 36.4375L16.9481 21.5968C16.7946 21.4433 16.5934 21.3666 16.3923 21.3666C16.1911 21.3666 15.99 21.4433 15.8365 21.5968L1.68921 35.744V2.10471C1.68921 1.87564 1.87574 1.68924 2.10504 1.68924H42.8975C43.1266 1.68924 43.313 1.87564 43.313 2.10471V35.4229L29.487 21.5968C29.4294 21.5393 29.3652 21.4926 29.2967 21.4565C29.0002 21.3006 28.6247 21.3474 28.3753 21.5968L25.2875 24.6849C24.9806 24.9918 24.9806 25.4894 25.2876 25.7965C25.441 25.9499 25.6422 26.0266 25.8433 26.0266C26.0444 26.0266 26.2456 25.9499 26.3991 25.7963L28.9311 23.2643L43.2159 37.5492C43.2464 37.5796 43.2792 37.6062 43.313 37.6306V42.8975C43.313 43.1266 43.1266 43.3131 42.8975 43.3131Z" fill="white"/>
<path d="M27.2219 14.0056C27.2219 11.5643 25.2359 9.57812 22.7946 9.57812C20.3533 9.57812 18.3672 11.5643 18.3672 14.0056C18.3672 16.4469 20.3533 18.433 22.7946 18.433C25.2358 18.433 27.2219 16.4469 27.2219 14.0056ZM22.7946 16.861C21.2201 16.861 19.9392 15.5801 19.9392 14.0056C19.9392 12.4311 21.2201 11.1502 22.7946 11.1502C24.369 11.1502 25.6499 12.4311 25.6499 14.0056C25.6499 15.5801 24.369 16.861 22.7946 16.861Z" fill="white"/>
</g>
<defs>
<clipPath id="clip0_2_5215">
<rect width="45" height="45" fill="white"/>
</clipPath>
</defs>
</svg>
