<svg width="45" height="45" viewBox="0 0 45 45" fill="none" xmlns="http://www.w3.org/2000/svg">
<path d="M24.3938 29.048V28.8588C25.8403 28.1971 26.8656 26.8253 27.0888 25.2545C27.6987 25.0333 28.1287 24.4441 28.1287 23.777C28.1287 23.2027 27.8185 22.6887 27.3384 22.4145C27.3883 22.2581 27.4294 22.1003 27.461 21.9428C27.7164 20.676 27.4254 19.3813 26.6416 18.2971C25.8705 17.2305 24.7114 16.495 23.3779 16.226C23.0192 16.1538 22.6536 16.1172 22.2911 16.1172C21.1473 16.1172 20.0314 16.486 19.1488 17.1557C18.24 17.8453 17.6185 18.8251 17.3988 19.9145C17.2322 20.7406 17.3002 21.5927 17.5947 22.3922C17.0956 22.6605 16.7651 23.1878 16.7651 23.7772C16.7651 24.4531 17.2016 25.0443 17.8205 25.2604C18.0498 26.8686 19.1085 28.2534 20.6026 28.8988V29.0481C17.4992 29.7511 15.3594 32.0724 15.3594 34.7849V35.5094H18.0603V35.5081H18.3602V35.5094H29.637V34.7849C29.637 32.0723 27.4972 29.7511 24.3938 29.048ZM22.2911 17.5661C22.5572 17.5661 22.8266 17.5932 23.0917 17.6464C24.0666 17.8432 24.9103 18.3757 25.4673 19.1462C25.9867 19.8643 26.1959 20.709 26.0622 21.538C25.3493 21.2052 24.4121 20.8534 23.4263 20.7184C21.5733 20.4651 21.5436 20.3789 21.4333 20.0587L21.0794 19.0349L20.2657 19.755C20.1791 19.8311 19.5234 20.4075 18.7668 21.0345C18.7459 20.7563 18.7633 20.4775 18.8192 20.2007C19.127 18.6741 20.5871 17.5661 22.2911 17.5661ZM19.2212 22.5351C19.7293 22.124 20.2313 21.6995 20.5945 21.388C21.098 21.8421 21.8829 21.9698 23.2298 22.154C24.1434 22.279 25.0393 22.6448 25.6874 22.9662V24.5989C25.6874 26.3818 24.2372 27.832 22.4545 27.832C20.6715 27.832 19.2213 26.3817 19.2213 24.5989V22.5351H19.2212ZM22.0515 29.2631C22.351 29.2896 22.6488 29.2864 22.9448 29.2552V29.7025L22.497 29.9508L22.0515 29.7033V29.2631ZM16.8823 34.0596C17.215 32.437 18.6397 31.0882 20.6026 30.5419V30.5559L22.4957 31.6077L24.3938 30.5564V30.5419C26.3569 31.0882 27.7818 32.4373 28.1141 34.0602L18.3544 34.059V34.0595L16.8823 34.0596Z" fill="white"/>
<path d="M29.6376 38.6691H15.36C14.9281 38.6691 14.5781 38.3191 14.5781 37.8873C14.5781 37.4555 14.9281 37.1055 15.36 37.1055H29.6376C30.0694 37.1055 30.4194 37.4555 30.4194 37.8873C30.4194 38.3191 30.0694 38.6691 29.6376 38.6691Z" fill="white"/>
<path d="M39.532 4.77091H26.2825V2.39559C26.2825 1.22544 25.3305 0.273438 24.1603 0.273438H20.8375C19.6674 0.273438 18.7154 1.22544 18.7154 2.39559V4.77089H5.4659C4.29573 4.77089 3.34375 5.72289 3.34375 6.89304V42.6047C3.34375 43.7749 4.29575 44.7269 5.4659 44.7269H39.532C40.7021 44.7269 41.6541 43.7749 41.6541 42.6047V6.89306C41.6541 5.72289 40.7021 4.77091 39.532 4.77091ZM20.2791 2.39559C20.2791 2.08766 20.5296 1.83711 20.8375 1.83711H24.1603C24.4682 1.83711 24.7188 2.08766 24.7188 2.39559V4.77089V6.33456V9.54386C24.7188 9.85176 24.4683 10.1023 24.1603 10.1023H20.8375C20.5296 10.1023 20.2791 9.85179 20.2791 9.54386V6.33459V4.77091V2.39559ZM40.0904 42.6048C40.0904 42.9127 39.8399 43.1632 39.532 43.1632H5.4659C5.15798 43.1632 4.90742 42.9127 4.90742 42.6048V6.89306C4.90742 6.58514 5.15798 6.33459 5.4659 6.33459H18.7154V9.54389C18.7154 10.714 19.6674 11.666 20.8375 11.666H24.1604C25.3305 11.666 26.2825 10.714 26.2825 9.54389V6.33459H39.532C39.8399 6.33459 40.0905 6.58514 40.0905 6.89306L40.0904 42.6048Z" fill="white"/>
</svg>
