<svg width="80" height="80" viewBox="0 0 80 80" fill="none" xmlns="http://www.w3.org/2000/svg">
<g clip-path="url(#clip0_22_440)">
<path fill-rule="evenodd" clip-rule="evenodd" d="M13.8182 53.4454C11.7727 49.4091 10.6 44.8545 10.6 40C10.6 35.1454 11.7727 30.5909 13.8182 26.5545C18.7545 16.7364 28.8727 10 40.6 10C48.7 10 55.4636 12.9727 60.6727 17.8273L52.0816 26.4182C48.9454 23.4727 45.0181 21.9454 40.6 21.9454C32.8 21.9454 26.1727 27.2091 23.8 34.3C23.2 36.1 22.8454 38.009 22.8454 40C22.8454 41.9909 23.2 43.9 23.8 45.7L23.7645 45.7272H23.8C26.1727 52.8182 32.8 58.0818 40.6 58.0818C44.6363 58.0818 48.0454 56.9908 50.7181 55.1908C53.9091 53.0636 56.0363 49.9 56.7454 46.1636H40.6V34.5454H68.8545C69.209 36.5091 69.3999 38.5545 69.3999 40.6818C69.3999 49.8181 66.1272 57.509 60.4545 62.7454C55.4909 67.3272 48.7 69.9999 40.6 69.9999C28.8727 69.9999 18.7545 63.2636 13.8182 53.4727V53.4454Z" fill="#9F9F9F"/>
</g>
<defs>
<clipPath id="clip0_22_440">
<rect width="60" height="60" fill="white" transform="translate(10 10)"/>
</clipPath>
</defs>
</svg>
