<svg width="80" height="80" viewBox="0 0 80 80" fill="none" xmlns="http://www.w3.org/2000/svg">
<g clip-path="url(#clip0_21_420)">
<path d="M40.1768 5.60667C40.08 5.27333 39.9435 4.91013 39.4902 4.91333C39.0867 4.91333 38.9102 5.21013 38.9102 5.49013C38.9102 5.87333 39.1635 6.05013 39.5768 6.26347L39.5934 6.27333C40 6.48 40.4835 6.72667 40.4867 7.30347C40.4867 7.85333 40.0232 8.29333 39.3267 8.29653C39.1134 8.29653 38.9435 8.25653 38.8134 8.22C38.6835 8.17333 38.6035 8.1368 38.5568 8.11013C38.5134 8 38.4435 7.55013 38.4134 7.3L38.5635 7.26347C38.6502 7.58347 38.8867 8.11013 39.4235 8.11013C39.8166 8.11013 40.0502 7.8632 40.0502 7.48C40.0502 7.09333 39.76 6.90987 39.3667 6.70347L39.3368 6.68667C39 6.50987 38.5035 6.24667 38.5 5.67333C38.5 5.17013 38.9 4.74 39.5768 4.7368C39.8168 4.7368 40.0368 4.79333 40.2368 4.85333C40.2568 5.02347 40.28 5.20347 40.3168 5.4768L40.3302 5.5768L40.1768 5.61013V5.60667ZM37.4635 8.28987C37.4902 8.1232 37.54 7.6232 37.5499 7.44667H37.3899C37.3467 7.66 37.2699 7.84667 37.1934 7.9632C37.0934 8.11333 36.9534 8.16987 36.56 8.21653C36.3 8.24667 36.1168 8.2632 36.0102 8.21333C35.9102 8.1568 35.8635 8.04987 35.8368 7.80667L35.7235 6.82347L36.2168 6.76667C36.6702 6.71333 36.7102 6.74 36.82 7.10667L36.9702 7.09013L36.8534 6.09013L36.7035 6.10667C36.6768 6.46347 36.6568 6.50667 36.1867 6.56347L35.6968 6.62L35.56 5.44C35.54 5.28347 35.5499 5.27333 35.7134 5.25333L36.1067 5.20667C36.48 5.16347 36.6267 5.18347 36.7099 5.28347C36.7899 5.39013 36.8566 5.5 36.9267 5.71013L37.0734 5.66667C37.06 5.59013 37.0432 5.5032 37.0299 5.4168C36.9934 5.21333 36.9566 5.01333 36.9467 4.92347L34.6267 5.19333L34.6432 5.34C35.0534 5.33013 35.0966 5.34 35.1499 5.80667L35.3899 7.8768C35.44 8.29653 35.4032 8.34347 34.9334 8.4368L34.9502 8.58347L37.4568 8.29333L37.4635 8.28987Z" fill="#6F6F6F"/>
<path fill-rule="evenodd" clip-rule="evenodd" d="M31.5467 5.83334C32.1934 5.68001 32.7035 5.69654 33.0902 5.92001C33.3969 6.10321 33.6635 6.43334 33.7801 6.91334C33.9267 7.52321 33.8001 8.03334 33.4801 8.42321C33.1702 8.80987 32.6969 9.05654 32.0702 9.20667L30.8635 9.49654L30.8302 9.36001C31.2601 9.22321 31.2934 9.18321 31.1902 8.74987L30.7001 6.70987C30.5969 6.27334 30.5502 6.26321 30.1502 6.32321L30.1134 6.17654L31.5435 5.83334H31.5467ZM31.6201 8.61014C31.7134 8.99681 31.9035 9.05334 32.2769 8.96321C33.2302 8.73654 33.4969 7.91681 33.3001 7.10321C33.1734 6.58001 32.8734 6.17334 32.4067 6.02987C32.1435 5.93654 31.8334 5.94667 31.4902 6.02987C31.2769 6.08001 31.1502 6.14001 31.1067 6.18667C31.0635 6.23334 31.0635 6.29334 31.1067 6.49334L31.6134 8.61014H31.6201Z" fill="#6F6F6F"/>
<path d="M26.9934 7.7568C26.9168 7.5368 27.0032 7.42347 27.2635 7.29013L27.2035 7.1568L26.0768 7.66347L26.1366 7.7968C26.4734 7.66667 26.6166 7.6768 26.7366 7.88C26.8099 8.00667 26.9302 8.2168 27.1267 8.6568L27.6566 9.83013L27.6432 9.8368L24.5734 8.34L23.8667 8.66L23.9267 8.79333C24.16 8.71013 24.28 8.70347 24.4299 8.7768C24.5667 8.85333 24.5867 8.86667 24.7432 9.2168L25.2166 10.2667C25.4134 10.7067 25.5032 10.94 25.5566 11.0968C25.6366 11.34 25.5467 11.4568 25.2766 11.5968L25.3366 11.7301L26.4667 11.22L26.4067 11.0867C26.0734 11.2133 25.9366 11.2067 25.8032 10.9733C25.7267 10.84 25.6099 10.62 25.4102 10.18L24.8702 8.98347H24.88L28.04 10.5635L28.1867 10.4968L27.32 8.57333C27.12 8.13013 27.0334 7.91013 26.9867 7.76L26.9934 7.7568Z" fill="#6F6F6F"/>
<path fill-rule="evenodd" clip-rule="evenodd" d="M23.7301 10.6232C24.3267 11.5832 24.0235 12.5867 23.2101 13.0933C22.4067 13.5933 21.3768 13.3667 20.8435 12.5168C20.3435 11.7168 20.44 10.6267 21.3733 10.0467C22.1267 9.57653 23.1733 9.7368 23.7267 10.6267L23.7301 10.6232ZM21.2235 12.1067C21.7435 12.94 22.58 13.2635 23.2067 12.8733C23.7 12.5667 23.8867 11.8768 23.3533 11.0235C22.7701 10.0867 21.9701 9.89333 21.3901 10.2568C20.8933 10.5667 20.7067 11.2768 21.2235 12.1067Z" fill="#6F6F6F"/>
<path d="M19.9168 15.16L20.0067 15.2768L21.1035 14.4267L21.0133 14.3099C20.6533 14.5467 20.6067 14.5533 20.3299 14.1965L19.0467 12.54C18.7733 12.1899 18.7867 12.1365 19.1099 11.8499L19.02 11.7333L17.9232 12.5832L18.0133 12.7C18.3733 12.4632 18.4232 12.46 18.6968 12.8133L19.98 14.4699C20.2533 14.8232 20.24 14.8733 19.92 15.16H19.9168ZM17.5067 13.9632C17.2933 13.82 17.1701 13.7568 17.0667 13.7365C16.92 13.7035 16.8299 13.7365 16.5432 14.0032L16.2733 14.2565L18.0333 16.14C18.3168 16.4435 18.3835 16.4533 18.7667 16.1368L18.8667 16.2435L17.7667 17.2701L17.6667 17.1635C17.9933 16.8168 17.9867 16.7467 17.7067 16.4467L15.9467 14.5635L15.7099 14.7835C15.3933 15.08 15.3432 15.1835 15.3765 15.3168C15.3899 15.4235 15.46 15.56 15.5733 15.7733L15.4632 15.8768C15.2679 15.6295 15.069 15.385 14.8667 15.1435L14.9432 15.0733C15.08 15.1101 15.1365 15.0733 15.2432 14.9733L16.7533 13.56C16.8565 13.4635 16.8667 13.4133 16.86 13.2835L16.94 13.2067C17.1032 13.3835 17.3832 13.6435 17.6099 13.8467L17.5099 13.9635L17.5067 13.9632ZM16.5067 18.4533C16.4368 18.2699 16.2234 17.92 16.0866 17.7101L15.9435 17.7901C16.1733 18.3267 16.2133 18.7301 15.8667 19.1368C15.3533 19.7435 14.4701 19.7533 13.72 19.12C13.1133 18.6067 12.8501 17.7733 13.4133 17.1067C13.7768 16.6733 14.1533 16.58 14.6635 16.8333L14.7368 16.6901C14.54 16.5568 14.38 16.4568 14.1835 16.3368L14.0635 16.26C14.0293 16.2884 13.9937 16.3151 13.9568 16.34C13.8067 16.4501 13.5701 16.6267 13.3568 16.8768C12.6035 17.7701 12.6133 18.8867 13.4533 19.5968C14.0901 20.1333 15.1467 20.28 15.9867 19.2835C16.2301 18.9968 16.4333 18.5901 16.5 18.4568L16.5067 18.4533Z" fill="#6F6F6F"/>
<path fill-rule="evenodd" clip-rule="evenodd" d="M13.6533 22.2032L13.5301 22.1232C13.6767 21.8235 13.6666 21.7632 13.4599 21.7067C13.3034 21.6632 13.0967 21.6165 12.8634 21.56L12.6266 21.5032L12.0133 22.4365L12.0333 22.4632C12.1684 22.6451 12.3074 22.824 12.4501 23C12.6634 23.2768 12.7333 23.2667 12.9799 22.96L13.1034 23.04L12.4799 23.9901L12.3567 23.9101C12.4999 23.6101 12.5133 23.5301 12.2266 23.1235L10.5234 20.7067L10.5733 20.5467C10.8967 20.6235 11.2301 20.7067 11.5701 20.7867C12.2066 20.94 12.8533 21.1 13.4701 21.2435C13.9367 21.3501 14.0167 21.32 14.2266 21.0533L14.3501 21.1333L13.6466 22.2067L13.6533 22.2032ZM11.0333 21.0933L11.0266 21.1032C11.2933 21.4667 11.5634 21.8333 11.8199 22.18L11.8701 22.2501L12.3999 21.4435L11.0301 21.0968L11.0333 21.0933ZM12.1799 24.6168C12.2133 24.5635 12.2399 24.5101 12.2666 24.4533L12.1533 24.3733C12.0733 24.4635 11.9698 24.5467 11.7666 24.6032C11.5898 24.6565 11.4165 24.6933 11.0898 24.7432C10.8098 24.78 10.3965 24.82 10.2031 24.8232C10.2231 24.4 10.0999 24.0299 9.69648 23.8301C9.41648 23.6901 9.14315 23.7067 8.92661 23.8368C8.71995 23.9568 8.56661 24.1667 8.39648 24.5101L7.81995 25.6733L7.94981 25.74C8.16315 25.3901 8.19675 25.36 8.59648 25.5568L10.4834 26.4901C10.8834 26.6867 10.8901 26.7435 10.7266 27.1435L10.8599 27.2101L11.4698 25.9768L11.3399 25.9101C11.1266 26.2733 11.0767 26.3 10.6765 26.1035L9.92981 25.7333L10.0031 25.5835C10.1231 25.34 10.2199 25.2867 10.3898 25.2733C10.4533 25.2667 10.5199 25.2635 10.5898 25.2568C10.8518 25.238 11.1132 25.2101 11.3733 25.1733C11.7831 25.1133 11.9834 24.9667 12.1767 24.6235L12.1799 24.6168ZM10.0066 24.8499C10.0434 25.0133 10.0066 25.1867 9.88341 25.4267L9.77328 25.6533L8.61995 25.08C8.49328 25.0165 8.44661 24.9699 8.43995 24.9267C8.43008 24.8765 8.45008 24.7867 8.51995 24.6499C8.69675 24.2933 9.05008 24.0533 9.55675 24.3032C9.81008 24.4299 9.95995 24.5965 10.0101 24.8499H10.0066Z" fill="#6F6F6F"/>
<path d="M9.79338 27.6101C9.94671 27.6965 10.3734 27.9635 10.5102 28.0635L9.65018 30.4368L9.51338 30.3867C9.64005 29.9267 9.61658 29.8733 9.21685 29.7267L7.25685 29.0168C6.81338 28.8568 6.78325 28.8899 6.60991 29.2635L6.47338 29.2133L7.26991 27.0168C7.35658 27.0467 7.54991 27.1035 7.74671 27.1635C7.82991 27.1867 7.91658 27.2133 7.99338 27.2368L7.96671 27.3867C7.74325 27.3568 7.61658 27.3667 7.48671 27.3901C7.35658 27.42 7.27658 27.5435 7.14671 27.8968L7.00991 28.2701C6.95338 28.4235 6.96005 28.4368 7.10991 28.4901L8.22671 28.8933L8.39338 28.4301C8.55338 27.9867 8.52325 27.9467 8.21658 27.7635L8.26991 27.62L9.21658 27.9635L9.16325 28.1067C8.78671 28.0435 8.74325 28.0667 8.58991 28.4933L8.42005 28.96L9.34991 29.2968C9.58005 29.38 9.69658 29.3901 9.78991 29.3235C9.88325 29.2501 9.94991 29.08 10.04 28.8333C10.1766 28.46 10.1867 28.3067 10.0966 28.1533C10.0299 28.0333 9.89338 27.88 9.72005 27.7435L9.79338 27.6035V27.6101ZM6.38671 30.7133C6.48351 30.6699 6.62005 30.6568 6.88005 30.66L6.90005 30.5099C6.60005 30.4635 6.22005 30.4 5.98671 30.3432L5.96005 30.4499C6.03658 30.5533 6.05658 30.6035 6.02671 30.74L5.54325 32.7499C5.50991 32.8933 5.48351 32.9565 5.34991 33L5.32671 33.1032C5.60325 33.18 5.92991 33.2867 6.22671 33.3832L6.26325 33.2365C6.05338 33.1232 5.92005 33.0467 5.84991 32.9667C5.74991 32.8733 5.73338 32.76 5.83338 32.3365L5.90991 32.02L8.41658 32.62C8.82005 32.7165 8.86005 32.7699 8.78005 33.24L8.92325 33.2733L9.27338 31.8133L9.12991 31.78C8.98325 32.2565 8.92325 32.2832 8.52005 32.1899L6.01658 31.5899L6.10325 31.2299C6.19658 30.8467 6.24991 30.7699 6.39338 30.7165L6.38671 30.7133ZM5.37018 34.3035C5.35338 34.5968 5.40671 34.7301 5.63338 34.7768C5.78671 34.8133 6.02005 34.8499 6.50351 34.9035L8.60005 35.1333L8.58325 35.2933L5.60991 37.2101V37.22L6.91658 37.3632C7.39658 37.4165 7.64671 37.4267 7.80005 37.4299C8.06991 37.4333 8.14325 37.32 8.20325 36.9699L8.34991 36.9867L8.21338 38.22L8.06671 38.2032C8.08325 37.9 8.02991 37.7632 7.78005 37.7067C7.62005 37.6733 7.37338 37.6299 6.89338 37.5765L5.74671 37.4499C5.36671 37.4067 5.34325 37.4165 5.20991 37.4965C5.06671 37.5867 5.01338 37.6965 4.96671 37.94L4.82005 37.9232L4.90671 37.1533L7.76005 35.2699V35.2533L6.48005 35.1133C6.00005 35.06 5.76005 35.0533 5.61338 35.0533C5.37658 35.0533 5.29338 35.1699 5.23338 35.5267L5.08671 35.5099L5.22325 34.2832L5.36991 34.3L5.37018 34.3035ZM8.06351 40.4301H8.21018L8.22005 39.0435H8.07338C8.04005 39.4701 8.01338 39.5133 7.56351 39.5101L5.47018 39.4933C5.02351 39.4899 4.99338 39.4467 4.96671 39.0168H4.82005L4.81018 40.4035H4.95685C4.99018 39.9733 5.02351 39.9333 5.46671 39.9368L7.56005 39.9533C8.00671 39.9568 8.03685 40 8.06351 40.4301Z" fill="#6F6F6F"/>
<path fill-rule="evenodd" clip-rule="evenodd" d="M60.14 61.4333H19.8501C19.768 61.4328 19.6894 61.4 19.6313 61.3419C19.5733 61.2839 19.5404 61.2053 19.54 61.1232C19.54 60.9533 19.68 60.8133 19.8501 60.8133H35.0301C35.7968 60.4032 36.3634 59.9733 36.4501 59.54C36.6901 58.34 37.1701 55.7067 36.4501 53.1901C35.7301 51.3067 33.92 50.0133 31.8333 49.1267C31.2133 49.2168 30.4666 49.4733 29.8634 50.0933C30.3933 50.5435 30.7733 50.7765 30.82 50.8035C30.82 50.8035 28.6466 52.3368 28.1434 53.6301C27.8266 53.22 26.5834 51.9768 26.0901 51.8035C26.32 51.3168 27.4866 49.5699 28.8034 49.0133C28.9333 49.22 29.1466 49.4533 29.3834 49.6768C29.7634 49.32 30.2634 48.9701 30.9 48.7635C28.6733 47.9635 26.2834 47.5701 24.6066 47.3768C24.5634 47.9565 24.5666 48.6067 24.6168 49.4467C21.2368 48.8867 17.7501 50.3368 17.7501 50.3368C17.7168 50.1635 17.0501 46.7133 17.8333 44.7368C19.2901 44.1968 23.0834 44.8035 25.0101 45.2168C24.8533 45.7565 24.7434 46.2333 24.6733 46.7368C26.3168 46.4835 27.8168 46.4435 29.1733 46.5435C28.6634 45.8333 27.7434 44.8832 26.1466 44.1568C24.8914 43.5821 23.742 42.8 22.7466 41.8435C22.0501 42.1368 21.3933 42.4933 20.9968 42.7867C20.66 40.7267 19.5234 37.8168 18.1066 36.5901C18.1066 36.5901 21.6701 35.7333 23.1501 34.6168C23.1666 34.7301 23.18 34.8499 23.1968 34.9733C23.4333 36.7533 23.8434 39.8133 24.8866 41.26C24.3634 41.2701 23.7933 41.4168 23.0968 41.6968C24.0466 42.5067 25.2133 43.2267 26.9466 43.6835C26.86 43.2901 26.7768 42.6933 26.8733 41.9301C26.6 41.9301 26.4701 41.9568 26.18 42.0067C26.0866 41.16 25.9901 39.5035 26.2866 38.9035C27.1701 38.6533 28.6234 39.0901 28.6968 39.1133C28.6968 39.1133 27.92 40.5467 28.0133 42.0235C27.6333 41.9635 27.6168 41.9667 27.3533 41.96C27.3066 42.8133 27.3834 43.3435 27.6133 43.84C29.6968 44.5035 30.6666 45.8168 31.2834 46.8101C32.48 47.0333 33.3733 47.2933 34.2866 47.62C34.2701 47.2267 34.2301 46.5733 33.9434 46.0333C33.7101 46.0968 33.5301 46.18 33.26 46.3099C33.0034 44.8533 31.9133 43.64 31.9133 43.64C31.9901 43.5965 33.2933 42.8365 34.2066 42.8699C34.6368 43.3867 34.9301 45.02 35.0368 45.8632C34.7133 45.8832 34.68 45.8632 34.3834 45.94C34.7266 46.6501 34.8266 47.2499 34.8901 47.8435C35.5368 48.0899 36.1066 48.3333 36.5968 48.5435L36.7968 48.6301C37.24 45.14 35.5266 42.2901 34.3501 40.7933C33.5501 41.3901 32.7866 42.0301 32.4634 42.36C31.8333 39.9267 28.24 36.72 28.24 36.72C28.3834 36.6501 31.2768 35.14 32.2368 33.9168C34.4866 35.1901 36.2168 38.5768 36.54 39.5C36.1466 39.5901 35.4768 39.9933 34.7834 40.4835C35.3066 40.8701 35.9368 41.42 36.6101 42.1933C36.9234 42.5501 37.2 42.9635 37.4568 43.4168C37.7968 43.1168 38.2568 42.64 38.5901 42.02C38.1034 41.8501 37.6434 41.7101 37.4101 41.6635C38.4301 40.5467 38.8701 37.6768 38.8701 37.6768C38.9533 37.7267 40.6666 38.6901 41.6 38.7733C41.6968 40.3267 40.5568 42.3165 40.1933 42.78C40.0101 42.6 39.54 42.38 39.0301 42.18C38.84 42.8133 38.4701 43.5133 37.8701 44.2067C38.4368 45.4067 38.8866 46.7933 39.3234 48.1467C39.4434 48.5133 39.56 48.8768 39.68 49.2333C44.0034 45.6301 42.7568 38.9368 41.8634 35.8301C41.2733 36.2168 40.66 36.7 39.8834 37.3968C38.0266 34.0501 34.34 32.0101 34.34 32.0101C34.4666 31.86 37.0234 28.8835 39.2933 28.1933C40.78 29.0933 42.88 32.8333 43.8568 34.8067C43.26 35.0501 42.7533 35.2933 42.2533 35.5901C43.3066 37.0733 44.0501 38.9301 44.4733 40.8501C45.04 40.3035 45.7168 39.8 46.36 39.3733C46.1234 39.1835 45.9101 39.0333 45.7634 38.9835C45.9968 38.4968 47.1634 36.7501 48.48 36.1933C48.9301 36.9235 50.42 37.94 50.4933 37.9835C50.4933 37.9835 48.32 39.5168 47.82 40.8101C47.6466 40.5901 47.2034 40.1267 46.7568 39.7168C45.76 40.9301 45.1333 42.5035 44.8368 43.3867C44.9501 44.9835 44.8368 46.5168 44.4733 47.7968C45.48 47.1701 46.8666 46.78 48.3968 46.5701C48.5568 45.1035 49.78 43.9835 50.8301 43.2867C50.4066 42.7701 49.9701 42.3568 49.4234 41.8968C50.7901 40.4768 53.5901 37.8467 55.1034 37.48C56.8568 38.68 58.24 41.9101 58.3066 42.0768C58.3066 42.0768 54.6066 42.8267 52.12 45.1835C51.7434 44.5467 51.4168 44.0501 51.0968 43.6267C50.1533 44.7701 49.8634 45.92 49.78 46.4301C51.6168 46.3 53.5568 46.3832 55.2568 46.5933C55.4101 45.7435 55.4968 44.9499 55.4101 44.5499C56.3834 44.4467 60.1834 44.5899 62.2866 46.0899C61.5834 47.4765 61.4368 50.7365 61.4333 50.8968C61.4333 50.8968 57.0066 48.9933 54.54 49.4499C54.6968 49.0333 54.9434 48.1267 55.14 47.1867C51.6466 47.1232 49.4501 47.6067 47.7101 48.4965C48.8733 48.6 49.6333 48.7565 50.1234 48.9099C50.2933 48.5432 50.4168 48.2067 50.4266 48.0099C50.96 48.0965 52.9632 48.7299 53.8634 49.8365C53.2866 50.4733 52.7301 52.1867 52.7066 52.2733C52.7066 52.2733 50.6266 50.6133 49.2466 50.4933C49.4133 50.26 49.6333 49.9467 49.9032 49.3899C49.0698 49.1667 47.8565 48.9933 46.7365 49.1733C46.0933 49.5867 45.5565 49.9067 44.9565 50.4333C44.2232 51.0733 43.6733 51.9232 43.2968 52.86C43.58 53.2765 43.76 53.8733 43.76 54.5432C43.76 55.6267 43.2968 56.5267 42.6733 56.7565C42.7568 58.2565 43.2133 59.6032 44.0066 60.3832C44.1869 60.544 44.3823 60.6868 44.5901 60.8099H60.1368C60.3066 60.8099 60.4466 60.9499 60.4466 61.12C60.4466 61.2899 60.3066 61.4299 60.1368 61.4299L60.14 61.4333ZM42.8634 54.3035C42.92 53.6701 42.6968 53.1301 42.3634 53.1035C42.0301 53.0733 41.7133 53.5635 41.6568 54.1968C41.6034 54.8299 41.8266 55.3667 42.1568 55.3968C42.4901 55.4267 42.8034 54.9365 42.8634 54.3035Z" fill="#6F6F6F"/>
<path d="M41.2866 8.08346L41.2767 8.23013L42.6634 8.31653L42.6733 8.16986C42.2466 8.11333 42.2066 8.0832 42.2333 7.63333L42.3634 5.5432C42.3901 5.1 42.4333 5.06986 42.8666 5.06319L42.8765 4.91653L41.4898 4.83333L41.4799 4.97999C41.9066 5.03653 41.9466 5.07333 41.9199 5.51653L41.7933 7.60666C41.7666 8.04986 41.7231 8.08 41.2898 8.08666L41.2866 8.08346ZM47.0434 7.47999C46.7266 7.47679 46.6999 7.5 46.6501 7.80346L46.5799 8.24346C46.5501 8.42346 46.5301 8.59013 46.5367 8.73333L46.4466 8.74C46.1266 8.76666 45.7266 8.7968 45.3466 8.74C44.2101 8.5568 43.5634 7.72666 43.7301 6.70346C43.9234 5.50346 44.9799 5.07679 45.9933 5.23999C46.3567 5.29999 46.6834 5.43679 46.8733 5.51333C46.9066 5.52666 46.9367 5.53999 46.9599 5.55013C46.9466 5.73333 46.9266 6.02346 46.9133 6.37013L46.7634 6.3768C46.7399 5.72666 46.3767 5.49333 45.8866 5.41333C45.0967 5.28666 44.4234 5.77013 44.2701 6.72666C44.1501 7.47013 44.4501 8.41013 45.4466 8.57013C45.6234 8.6 45.7901 8.58666 45.9133 8.55013C46.0266 8.51013 46.0967 8.4568 46.1333 8.24L46.2034 7.8C46.2634 7.42666 46.2333 7.39013 45.7333 7.26666L45.7567 7.12666L47.0701 7.34L47.0466 7.47999H47.0434ZM51.3799 7.14666C51.4666 6.93333 51.6066 6.90346 51.8933 6.97333L51.9367 6.83333L50.7533 6.47653L50.7101 6.61653C51.0501 6.74 51.1501 6.8432 51.1066 7.07653C51.0799 7.22 51.0301 7.45653 50.8901 7.92L50.5167 9.15333H50.4999L49.1701 5.99999L48.4266 5.77653L48.3834 5.91653C48.6133 6.00666 48.7101 6.07999 48.7733 6.23653C48.8266 6.38319 48.8301 6.40666 48.7199 6.77333L48.3866 7.87653C48.2466 8.33653 48.1599 8.57333 48.0967 8.7232C47.9967 8.96 47.8533 8.98986 47.5567 8.91653L47.5133 9.05653L48.6999 9.41653L48.7434 9.27653C48.4101 9.15333 48.3133 9.05999 48.3634 8.79653C48.3933 8.64666 48.4501 8.4032 48.5901 7.94L48.9701 6.6832H48.9799L50.3199 9.95653L50.4767 10.0032L51.0866 7.9832C51.2266 7.51653 51.3066 7.29333 51.3701 7.14986L51.3799 7.14666Z" fill="#6F6F6F"/>
<path fill-rule="evenodd" clip-rule="evenodd" d="M57.4232 13.5032C58.2232 14.0299 59.2632 13.8899 59.8866 12.9467C60.4634 12.0733 60.1768 11.0533 59.4333 10.5635C58.5168 9.95654 57.4834 10.3235 56.9634 11.1101C56.4101 11.9501 56.633 12.98 57.4232 13.5032ZM57.617 13.4067C57.0002 13 56.9469 12.1032 57.4869 11.2835C58.0269 10.4667 58.7504 10.34 59.2368 10.6635C59.8101 11.04 59.9669 11.8501 59.3602 12.7701C58.8069 13.6101 58.1005 13.7267 57.617 13.4067Z" fill="#6F6F6F"/>
<path d="M64.3733 14.7533C64.1231 14.5632 63.9831 14.54 63.8234 14.6832C63.7199 14.78 63.5634 14.9432 63.2466 15.3067L62.9599 15.6333C62.5533 16.1 62.1901 16.3733 61.7533 16.4133C61.4066 16.4432 61.0701 16.2965 60.8101 16.0699C60.5799 15.8699 60.3999 15.6165 60.3434 15.3299C60.2634 14.9432 60.4133 14.5499 60.8133 14.0867L61.6733 13.1C61.9834 12.7432 61.9666 12.7 61.6767 12.4032L61.7733 12.2933L62.7967 13.1832L62.6999 13.2933C62.3701 13.04 62.3199 13.0365 62.0101 13.3933L61.2266 14.2933C60.6733 14.9299 60.6101 15.5133 61.0999 15.94C61.6701 16.4365 62.2599 16.1165 62.8266 15.4632L63.0866 15.1632C63.4034 14.8 63.5367 14.6232 63.6266 14.4867C63.7365 14.3133 63.6967 14.1933 63.4367 13.9333L63.5333 13.8232L64.4733 14.6432L64.3767 14.7533H64.3733ZM67.0101 18.1232C67.1967 17.9867 67.3301 18.0365 67.5365 18.2467L67.6466 18.1499L66.8298 17.2232L66.7199 17.32C66.9431 17.6032 66.9733 17.7432 66.8133 17.92C66.7133 18.0299 66.5466 18.2032 66.1831 18.52L65.2165 19.3699L65.2066 19.3565L65.7399 15.9832L65.2266 15.4L65.1165 15.4968C65.2631 15.6968 65.3066 15.8101 65.2799 15.9733C65.2466 16.1267 65.2399 16.1499 64.9533 16.4L64.0866 17.16C63.7231 17.4765 63.5266 17.6333 63.3933 17.7267C63.1831 17.8765 63.0466 17.8232 62.8333 17.6067L62.7231 17.7032L63.5431 18.6365L63.6533 18.54C63.4333 18.26 63.3999 18.1267 63.5831 17.9299C63.6866 17.8165 63.8666 17.64 64.2266 17.3232L65.2133 16.4565L65.2199 16.4632L64.6333 19.9499L64.7399 20.0733L66.3266 18.68C66.6933 18.36 66.8765 18.2099 67.0066 18.1232H67.0101Z" fill="#6F6F6F"/>
<path fill-rule="evenodd" clip-rule="evenodd" d="M69.1965 20.3501C69.5634 20.9035 69.7232 21.3901 69.6466 21.8301C69.58 22.1832 69.3632 22.5467 68.9533 22.82C68.4301 23.1667 67.9066 23.2235 67.4333 23.0568C66.9634 22.8968 66.5666 22.5368 66.2101 22L65.5234 20.9667L65.64 20.8901C65.9165 21.2467 65.9634 21.2667 66.3368 21.02L68.0866 19.86C68.4634 19.6101 68.4565 19.5635 68.26 19.2101L68.3866 19.1267L69.2 20.3533L69.1965 20.3501ZM66.6168 21.3733C66.2866 21.5933 66.2968 21.7933 66.5101 22.1101C67.0498 22.9267 67.9133 22.8968 68.6098 22.4333C69.06 22.1368 69.3365 21.7101 69.3101 21.2267C69.3066 20.9467 69.1901 20.66 68.9965 20.3667C68.8765 20.1835 68.78 20.0835 68.72 20.06C68.66 20.0365 68.6034 20.0568 68.4333 20.1701L66.62 21.3733H66.6168ZM68.7968 26.1733L68.6666 26.24L69.24 27.3899L69.3701 27.3232C69.2466 27.0032 69.2568 26.9232 69.5866 26.5733C70.02 26.1168 70.48 25.6368 70.9301 25.1667C71.1733 24.9133 71.4165 24.66 71.6466 24.4168L71.5333 24.2933L68.5901 24.5467C68.0968 24.5867 68.0368 24.5365 67.8466 24.2632L67.7168 24.3299L68.2234 25.3467L68.3533 25.28C68.2101 24.9133 68.2368 24.8467 68.5834 24.8035C68.8081 24.7672 69.0337 24.7371 69.26 24.7133H69.2898L69.7866 25.7067C69.7266 25.7699 69.6666 25.8333 69.6066 25.8933C69.4466 26.0632 69.3032 26.2099 69.1898 26.3232C69.0365 26.4765 68.98 26.4533 68.7933 26.1765L68.7968 26.1733ZM70.94 24.52V24.5299L69.9533 25.5365L69.5234 24.6733C69.9768 24.6235 70.46 24.5701 70.94 24.52Z" fill="#6F6F6F"/>
<path d="M72.7502 29.4333C72.9667 29.2933 73.0734 29.2032 73.1302 29.1168C73.22 28.9933 73.2235 28.9 73.0902 28.5301L72.9635 28.18L70.5435 29.0635C70.1534 29.2067 70.12 29.2635 70.26 29.74L70.1232 29.7899L69.6067 28.3765L69.7435 28.3267C69.9368 28.7632 70 28.7867 70.3902 28.6432L72.8102 27.76L72.7 27.4533C72.5502 27.0435 72.4734 26.96 72.34 26.94C72.2334 26.9101 72.0835 26.9235 71.8435 26.94L71.7902 26.7968C72.094 26.7146 72.3962 26.6267 72.6968 26.5333L72.7334 26.6333C72.6467 26.7435 72.66 26.8101 72.7102 26.9501L73.42 28.8933C73.4702 29.0267 73.5134 29.0533 73.6368 29.1L73.6734 29.2035C73.4467 29.2867 73.0968 29.4435 72.82 29.5701L72.7534 29.4333H72.7502ZM70.7067 31.1765L70.5635 31.2133L70.9168 32.5565L71.06 32.52C70.98 32.0965 70.9966 32.0499 71.4299 31.9365L73.4566 31.4032C73.8867 31.2899 73.9267 31.3232 74.0667 31.7299L74.2099 31.6933L73.8566 30.3499L73.7134 30.3867C73.7934 30.8099 73.7734 30.86 73.3432 30.9733L71.3166 31.5067C70.8867 31.62 70.8432 31.5867 70.7067 31.18V31.1765Z" fill="#6F6F6F"/>
<path fill-rule="evenodd" clip-rule="evenodd" d="M73.3933 36.4768C72.2765 36.6533 71.4701 35.9768 71.3235 35.0301C71.1768 34.0933 71.7901 33.2333 72.7832 33.08C73.7133 32.9333 74.68 33.4499 74.8499 34.5365C74.9867 35.4165 74.4301 36.3133 73.3933 36.4768ZM73.0067 33.5835C72.0333 33.7368 71.4099 34.38 71.5232 35.1101C71.6133 35.6835 72.1765 36.1267 73.1699 35.9701C74.26 35.8 74.7533 35.14 74.6467 34.46C74.5565 33.88 73.9765 33.4301 73.0099 33.5835H73.0067Z" fill="#6F6F6F"/>
<path d="M74.7701 40.5501C75 40.5635 75.0733 40.6867 75.1 40.98H75.2466L75.2032 39.74L75.0565 39.7467C75.0501 40.1099 74.9866 40.2365 74.7498 40.2699C74.6032 40.2899 74.3632 40.32 73.8832 40.3365L72.5965 40.3835V40.3667L75.1432 38.0899L75.1165 37.3165L74.9698 37.3232C74.9565 37.5699 74.92 37.6867 74.7933 37.7965C74.6701 37.8965 74.6501 37.9067 74.2701 37.92L73.12 37.96C72.6365 37.9765 72.3866 37.9699 72.2232 37.96C71.9666 37.9432 71.8933 37.8133 71.8666 37.5099L71.72 37.5165L71.7632 38.7565L71.9098 38.7499C71.9165 38.3933 71.9765 38.2699 72.2432 38.2365C72.3933 38.2165 72.6466 38.1899 73.1266 38.1733L74.44 38.1267V38.1365L71.7765 40.4632L71.7832 40.6267L73.8933 40.5499C74.38 40.5333 74.6165 40.5333 74.7733 40.5499L74.7701 40.5501ZM18.68 33.7368C17.9933 31.9035 14.9466 29.7168 14.9466 29.7168C15.0533 29.6501 17.1666 28.2435 17.8098 27.2168C19.66 28.02 21.2765 30.5 21.6 31.1867C20.8965 31.4267 19.1365 33.1635 18.68 33.7368ZM62.1466 24.5267C62.1466 24.5267 60.1501 26.0235 59.3368 28.1368C58.2701 27.4235 57.6866 27.1733 56.7933 26.9435C57.2066 25.7067 58.1301 23.3467 58.9266 22.6965C60.3 22.9133 62.02 24.42 62.14 24.5267H62.1466ZM39.4634 23.4768C40.3 23.5635 42.2 23.1035 42.8 22.7968C42.6168 23.6301 43.3701 26.4768 43.7634 27.5133C43.2834 27.34 41.5634 27.7901 40.4301 28.1933C40.5901 26.0565 39.4634 23.4768 39.4634 23.4768ZM46.5234 32.8101C46.2501 34.4768 45.66 36.1333 44.5301 37.18C45.3634 35.5701 45.6066 33.7133 45.7133 32.4933C45.0466 32.2635 44.38 32.1101 43.8901 32.1168C44.8834 30.6267 45.1834 27.5467 45.3568 25.7635C45.3701 25.64 45.38 25.5235 45.3901 25.4101C46.9133 26.4733 50.5034 27.2 50.5034 27.2C49.1301 28.4768 48.0968 31.4235 47.8333 33.4968C47.5168 33.28 47.0501 33.0301 46.5234 32.8067V32.8101ZM48.1333 25.6533C48.8568 24.2 50.3768 20.1733 50.2301 18.9333C51.06 19.4701 53.7533 20.4235 54.9834 20.4168C54.9834 20.4168 52.9666 24.0067 52.8834 27.1368C51.2933 26.38 48.86 25.4733 48.1333 25.6533ZM57.5501 35.1835C59.5168 33.9235 61.9965 31.46 62.6232 29.4565C62.6232 29.4565 65.0866 32.7333 66.8933 33.76C66.7866 33.8267 66.6698 33.8933 66.5466 33.9667C64.8298 35 61.8666 36.7832 60.8466 38.5C60.3333 37.3768 58.5533 35.7568 57.5498 35.1835M61.2101 45.2835C61.4101 44.4467 60.3533 41.66 59.4733 39.84C63.0701 39.7232 67.1733 37.3835 67.1733 37.3835C67.1768 38.7968 68.2901 41.88 68.9101 42.8301C67.4866 42.6701 62.8701 44.4435 61.2101 45.2867V45.2835ZM50.56 33.1467C52.7733 31.96 55.0434 27.7101 55.0434 27.7101C55.1466 27.8333 57.2933 30.2867 58.7133 30.9301C58.0066 33.4168 55.1266 35.9035 54.3034 36.4301C54.1434 36.1035 53.5701 35.5133 53.0034 35.0035C52.2333 35.7333 51.5701 36.7301 51.0368 38.6733C50.9133 37.0235 51.5701 35.5501 52.4568 34.5501C51.6533 33.8701 50.98 33.3933 50.5634 33.1435L50.56 33.1467ZM27.4034 25.0099C27.4034 25.0099 25.4234 22.1467 23.7368 21.48C24.2768 21.0667 25.92 19.46 26.1533 18.8101C26.7866 19.12 29.0634 20.6667 29.7733 22.3933C28.8066 22.9733 27.4666 24.9133 27.4066 25.0101L27.4034 25.0099ZM47.1333 23.1467C45.5434 22.9168 44.7501 22.9467 43.6168 23.1701C43.4133 21.5501 43.18 18.3768 43.7333 17.2101C45.42 16.7067 48.22 17.5 48.36 17.5435C48.36 17.5435 46.9133 20.3168 47.1333 23.1467ZM29.3933 33.4768C28.2168 33.5467 25.8498 34.2168 24.8698 35.0133C24.72 32.9768 22.8266 30.0067 21.7266 28.28C21.6466 28.1533 21.5698 28.0368 21.5 27.9235C23.6168 27.8101 27.36 25.9333 27.36 25.9333C27.0234 28.0501 28.1666 31.4301 29.3901 33.4768H29.3933ZM18.6301 39.24C18.1768 39.8365 18.0301 42.4267 18.0901 44.1901C15.1866 43.0133 11.0901 43.4301 11.0901 43.4301C11.5866 42.3035 11.7901 39.4533 11.6301 38.48C12.7101 39.1101 17.0101 39.3267 18.6301 39.24ZM34.7666 27.18C33.4234 23.9733 30.2968 21.7635 30.2968 21.7635C30.4266 21.64 33.0301 19.2067 35.1501 18.8101C36.4034 19.7701 37.9266 23.3533 38.6168 25.2333C37.8733 25.4467 37.6301 25.4901 36.98 25.8301C37.3101 26.3501 37.3466 27.2667 37.1733 27.96C37.04 27.2867 36.44 26.5067 36.1733 26.2835C35.76 26.5267 35.3 26.8035 34.7733 27.18H34.7666ZM41.9333 20.5901C40.52 20.5 39.5501 20.58 37.6568 21.08C37.4866 17.8267 35.2933 14.8835 35.2933 14.8835C35.4568 14.8168 38.7333 13.5 40.86 13.8235C41.7133 15.0701 41.9266 18.7168 41.9333 20.5901ZM28.4 27.6765C28.4 27.6765 30.86 26.5867 31.7768 25.5832C31.7901 25.6267 31.8034 25.6699 31.82 25.7133C31.8333 25.7533 31.8466 25.7968 31.86 25.84C32.2701 27.0933 32.9701 29.2467 33.9168 30.1533C33.1232 30.3133 31.8234 31.2133 31.3066 31.7701C30.7901 30.3267 29.58 28.3768 28.3968 27.68L28.4 27.6765Z" fill="#6F6F6F"/>
<path fill-rule="evenodd" clip-rule="evenodd" d="M0 40C0 17.9067 17.9101 0 40 0C62.0899 0 80 17.9067 80 40C80 62.0933 62.0933 80 40 80C17.9101 80 0 62.0933 0 40ZM1.1 40C1.1 61.4832 18.5168 78.9 40 78.9C61.4832 78.9 78.9 61.4832 78.9 40C78.9 18.5168 61.4867 1.1 40 1.1C18.5133 1.1 1.1 18.5165 1.1 40Z" fill="#6F6F6F"/>
<path d="M45.2701 69.2701C45.2701 69.8368 45.1635 70.3299 44.9501 70.7467C44.7368 71.1635 44.46 71.5032 44.12 71.7701C43.7735 72.039 43.3802 72.2413 42.96 72.3667C42.5288 72.4975 42.0805 72.5638 41.6299 72.5632H38.8667V72.2299C38.9565 72.2299 39.0768 72.2235 39.22 72.2067C39.3666 72.1868 39.4633 72.1668 39.5099 72.1467C39.6032 72.1067 39.6699 72.0467 39.7133 71.9667C39.7565 71.8867 39.78 71.7867 39.78 71.6768V66.8667C39.78 66.76 39.76 66.6635 39.7232 66.58C39.6899 66.4968 39.6165 66.4301 39.5133 66.38C39.414 66.3317 39.3086 66.2969 39.2 66.2768C39.1042 66.2564 39.0074 66.2419 38.9099 66.2333V65.9H41.8232C42.2232 65.9 42.62 65.9635 43.0067 66.0867C43.3965 66.2101 43.7333 66.3733 44.02 66.5835C44.4133 66.8635 44.72 67.2267 44.94 67.6768C45.1632 68.1267 45.2733 68.66 45.2733 69.2701H45.2701ZM44.12 69.2667C44.12 68.82 44.06 68.4133 43.94 68.0533C43.82 67.69 43.6467 67.3732 43.42 67.1032C43.2014 66.8444 42.9282 66.6372 42.62 66.4965C42.3067 66.3499 41.9568 66.2765 41.5733 66.2765C41.4467 66.2765 41.3 66.2765 41.1368 66.2867C40.9768 66.2867 40.8568 66.2933 40.78 66.2965V71.4232C40.78 71.7099 40.8635 71.9067 41.0301 72.0165C41.1968 72.1264 41.4501 72.18 41.7968 72.18C42.1933 72.18 42.5435 72.1099 42.84 71.9699C43.1365 71.8299 43.38 71.6333 43.5635 71.3832C43.7626 71.1105 43.9063 70.8013 43.9867 70.4733C44.0768 70.1267 44.1235 69.7232 44.1235 69.2699L44.12 69.2667ZM37.1901 72.5632H35.0666V72.2533C35.2066 72.2368 35.3266 72.2235 35.4234 72.2067C35.5234 72.1901 35.5733 72.1499 35.5733 72.0835C35.5733 72.0568 35.5568 72.0101 35.5267 71.9533C35.4968 71.8933 35.4634 71.84 35.4333 71.7899C35.3533 71.6667 35.2466 71.5035 35.1101 71.3C34.9768 71.0933 34.8101 70.8467 34.6133 70.5632C34.4573 70.7575 34.3073 70.9565 34.1635 71.16C34.0267 71.3501 33.88 71.5533 33.7301 71.7701C33.7067 71.8 33.6835 71.84 33.66 71.8867C33.6365 71.9333 33.6267 71.9701 33.6267 72C33.6267 72.0699 33.6699 72.1267 33.7565 72.1733C33.8467 72.2165 33.9832 72.2467 34.16 72.2632V72.5632H32.4435V72.2733C32.6568 72.2099 32.8266 72.1365 32.9568 72.0467C33.0915 71.9526 33.2127 71.8405 33.3168 71.7133C33.4133 71.5867 33.5501 71.4165 33.72 71.1965C33.8968 70.9765 34.12 70.68 34.3968 70.3032C34.2368 70.0733 34.04 69.7965 33.8101 69.4667C33.58 69.1333 33.3933 68.86 33.24 68.64C33.16 68.52 33.0634 68.4267 32.9568 68.3533C32.8533 68.28 32.7067 68.24 32.5133 68.24V67.9301H34.5301V68.24C34.4301 68.24 34.3301 68.2467 34.2333 68.26C34.1365 68.2733 34.0866 68.3 34.0866 68.3435C34.0866 68.3701 34.0968 68.4032 34.1133 68.4368C34.1299 68.4704 34.1568 68.5101 34.1835 68.5501C34.2533 68.6568 34.36 68.82 34.5034 69.0435C34.6501 69.2667 34.8101 69.5 34.9768 69.7467C35.0866 69.5965 35.2133 69.42 35.3568 69.22C35.4962 69.0325 35.6306 68.8413 35.76 68.6467C35.7733 68.6267 35.7867 68.5968 35.7968 68.5667C35.8101 68.5334 35.8168 68.5001 35.8168 68.4667C35.8168 68.4 35.7634 68.3501 35.6533 68.3101C35.5544 68.2713 35.4516 68.2433 35.3467 68.2267V67.9267H37.0568V68.2168C36.8168 68.28 36.6267 68.3533 36.4933 68.4435C36.3637 68.5232 36.2478 68.6233 36.1501 68.74C36.0246 68.8961 35.9012 69.0539 35.78 69.2133C35.64 69.4 35.44 69.6635 35.1835 70.0035C35.4701 70.4035 35.7 70.7333 35.88 70.9901C36.06 71.2467 36.24 71.5101 36.42 71.7835C36.5101 71.92 36.6101 72.03 36.72 72.1133C36.8333 72.1901 36.9867 72.2368 37.18 72.2501V72.56L37.1901 72.5632ZM31.1034 72.5632H28.1V72.2299C28.1834 72.2235 28.3066 72.2133 28.4666 72.2032C28.6266 72.1899 28.74 72.1733 28.8034 72.1467C28.9066 72.1067 28.9832 72.0499 29.0301 71.9832C29.0768 71.9101 29.1 71.8133 29.1 71.6867V66.8568C29.1 66.7467 29.0835 66.6568 29.0467 66.5832C29.0133 66.5101 28.9301 66.4467 28.8034 66.3965C28.7101 66.36 28.5901 66.3232 28.4467 66.2933C28.3328 66.2645 28.2169 66.2444 28.1 66.2333V65.9H31.1034V66.2333C31.0066 66.2333 30.8901 66.2501 30.7568 66.2699C30.6234 66.2896 30.5034 66.3133 30.4034 66.3435C30.2834 66.38 30.2034 66.4432 30.1634 66.5267C30.1234 66.6101 30.1034 66.7067 30.1034 66.8099V71.6333C30.1034 71.7365 30.1266 71.8299 30.1701 71.9099C30.2168 71.9867 30.2968 72.0501 30.4034 72.0965C30.4701 72.12 30.5768 72.1499 30.7234 72.18C30.8733 72.2067 31 72.2232 31.1034 72.2267V72.5632ZM46.6133 65.8968V66.2301C46.6968 66.2365 46.8101 66.2568 46.9533 66.2867C47.0965 66.3168 47.2133 66.3533 47.2965 66.3933C47.4067 66.4435 47.4768 66.5101 47.5133 66.5901C47.5467 66.6667 47.5667 66.76 47.5667 66.8635V71.6733C47.5667 71.7867 47.5432 71.8835 47.5 71.9635C47.46 72.0399 47.3933 72.0999 47.3 72.1435C47.2533 72.1667 47.1499 72.1835 46.9933 72.2C46.8365 72.2133 46.7099 72.22 46.6165 72.2267V72.56H49.5067V72.2267C49.4267 72.2267 49.3067 72.2067 49.1499 72.1733C48.9933 72.1435 48.8899 72.1168 48.8432 72.0933C48.74 72.0435 48.6667 71.9768 48.6267 71.8968C48.5867 71.8168 48.5667 71.7235 48.5667 71.62V69.3235H49.0099C49.6365 69.3235 49.7832 69.4 49.88 69.48C49.9432 69.5333 50 69.62 50.0533 69.74C50.1099 69.86 50.1467 69.9568 50.1533 69.9968H50.5099V68.2667H50.1533C50.1373 68.3795 50.1023 68.4889 50.0499 68.5901C49.9999 68.6902 49.9433 68.7636 49.88 68.8101C49.7899 68.88 49.6365 68.9435 49.0099 68.9435H48.5667V66.28H50.3467C50.9733 66.28 51.12 66.3568 51.2165 66.4368C51.28 66.4901 51.3365 66.5768 51.3899 66.6968C51.4467 66.8168 51.4899 66.9533 51.4899 66.9533H51.8467V65.8933H46.6165L46.6133 65.8968ZM14.04 61.4432C13.9466 61.4432 13.8565 61.4032 13.7933 61.3267C9.61332 56.1933 7.04985 50.0099 6.38665 43.44C6.37845 43.3565 6.40368 43.2731 6.4568 43.2081C6.50993 43.1432 6.58663 43.1019 6.67012 43.0933C6.7115 43.089 6.75332 43.0929 6.79319 43.1049C6.83305 43.1168 6.87016 43.1365 6.90238 43.1628C6.9346 43.1891 6.9613 43.2216 6.98093 43.2582C7.00057 43.2949 7.01275 43.3351 7.01678 43.3765C7.66665 49.8232 10.18 55.8933 14.2834 60.9267C14.3097 60.9591 14.3294 60.9963 14.3412 61.0363C14.3531 61.0763 14.357 61.1182 14.3526 61.1597C14.3482 61.2012 14.3357 61.2414 14.3158 61.2781C14.2959 61.3147 14.269 61.3471 14.2365 61.3733C14.1795 61.4183 14.1091 61.4429 14.0365 61.4432H14.04ZM65.96 61.4432C65.8901 61.4432 65.82 61.42 65.76 61.3733C65.7276 61.3471 65.7006 61.3147 65.6807 61.278C65.6609 61.2414 65.6484 61.2012 65.6441 61.1597C65.6397 61.1182 65.6436 61.0763 65.6555 61.0363C65.6674 60.9963 65.687 60.9591 65.7133 60.9267C69.8165 55.8901 72.3299 49.8232 72.98 43.3768C72.984 43.3354 72.9961 43.2951 73.0158 43.2584C73.0354 43.2217 73.0621 43.1892 73.0943 43.1629C73.1265 43.1365 73.1636 43.1168 73.2035 43.1049C73.2434 43.093 73.2853 43.089 73.3267 43.0933C73.4101 43.102 73.4867 43.1433 73.5398 43.2082C73.5929 43.2732 73.618 43.3565 73.6099 43.44C72.9467 50.0101 70.3867 56.1965 66.2032 61.3267C66.1733 61.3632 66.1357 61.3926 66.093 61.4128C66.0503 61.433 66.0037 61.4433 65.9565 61.4432H65.96ZM54.7032 8L54.6267 8.15333C54.6632 8.1768 54.7099 8.21013 54.7667 8.2568C54.8267 8.30347 54.8699 8.34667 54.9 8.38347C54.94 8.43013 54.9565 8.4768 54.9533 8.52347C54.9533 8.56667 54.9368 8.61333 54.9133 8.66L53.8133 10.8533C53.7867 10.9035 53.7565 10.9435 53.7165 10.9701C53.68 10.9968 53.6365 11.0067 53.5832 11.0067C53.5565 11.0067 53.5067 10.9901 53.4301 10.9635C53.3568 10.9333 53.2968 10.9101 53.2533 10.8901L53.1768 11.0435L54.4933 11.7035L54.5701 11.5501C54.5175 11.5184 54.4673 11.4827 54.42 11.4435C54.377 11.4114 54.3368 11.3757 54.3 11.3368C54.2635 11.2899 54.2467 11.2435 54.2467 11.1965C54.2467 11.1496 54.26 11.1032 54.2835 11.0565L54.8101 10.0099L55.0133 10.1101C55.3 10.2533 55.3499 10.3235 55.3733 10.38C55.3899 10.42 55.3965 10.4733 55.3933 10.54C55.3933 10.6067 55.3867 10.66 55.38 10.68L55.5432 10.7632L55.94 9.97333L55.7765 9.88987C55.7443 9.93792 55.7036 9.97975 55.6565 10.0133C55.6099 10.0467 55.5699 10.0667 55.5299 10.0733C55.4733 10.0832 55.3899 10.08 55.1032 9.93653L54.9 9.83653L55.5099 8.62L56.3232 9.02667C56.6099 9.16987 56.66 9.24 56.6832 9.29653C56.7001 9.33653 56.7067 9.38987 56.7032 9.45653C56.7032 9.5232 56.6899 9.59653 56.6899 9.59653L56.8533 9.68L57.0965 9.19653L54.7099 8H54.7032Z" fill="#6F6F6F"/>
</g>
<defs>
<clipPath id="clip0_21_420">
<rect width="80" height="80" fill="white"/>
</clipPath>
</defs>
</svg>
