<svg width="24" height="24" viewBox="0 0 24 24" fill="none" xmlns="http://www.w3.org/2000/svg">
<g clip-path="url(#clip0_24_482)">
<path d="M0 2.67173C0 1.89731 0.270278 1.25842 0.810811 0.755068C1.35134 0.251694 2.05406 1.90735e-05 2.91892 1.90735e-05C3.76835 1.90735e-05 4.45559 0.247815 4.98069 0.743452C5.52123 1.25456 5.79151 1.92054 5.79151 2.74143C5.79151 3.48486 5.52897 4.10437 5.00386 4.60001C4.46333 5.11112 3.7529 5.36668 2.87259 5.36668H2.84942C1.99999 5.36668 1.31275 5.11112 0.787645 4.60001C0.262541 4.0889 0 3.44613 0 2.67173ZM0.301158 23V7.48081H5.44402V23H0.301158ZM8.29344 23H13.4363V14.3343C13.4363 13.7922 13.4981 13.3741 13.6216 13.0798C13.8378 12.5532 14.166 12.1079 14.6062 11.7439C15.0463 11.38 15.5984 11.198 16.2625 11.198C17.9923 11.198 18.8571 12.3673 18.8571 14.7061V23H24V14.102C24 11.8098 23.4595 10.0712 22.3784 8.88637C21.2973 7.70152 19.8687 7.1091 18.0927 7.1091C16.1004 7.1091 14.5483 7.96869 13.4363 9.68788V9.73435H13.4131L13.4363 9.68788V7.48081H8.29344C8.32432 7.97643 8.33977 9.5175 8.33977 12.104C8.33977 14.6906 8.32432 18.3225 8.29344 23Z" fill="white"/>
</g>
<defs>
<clipPath id="clip0_24_482">
<rect width="24" height="23" fill="white"/>
</clipPath>
</defs>
</svg>
