<svg width="24" height="24" viewBox="0 0 24 24" fill="none" xmlns="http://www.w3.org/2000/svg">
<g clip-path="url(#clip0_2_5820)">
<path d="M9.55221 23.3711C9.44111 23.3711 9.33455 23.327 9.25593 23.2484L3.03913 17.0314C2.87548 16.8678 2.87548 16.6025 3.03913 16.4389L15.745 3.73325C15.8236 3.65465 15.9301 3.61053 16.0412 3.61053H20.2377C20.4691 3.61053 20.6566 3.79809 20.6566 4.02951V8.61441C20.6566 8.72552 20.6125 8.83212 20.534 8.91067L10.8201 18.6246C10.6564 18.7882 10.3912 18.7882 10.2275 18.6246C10.0639 18.4609 10.0639 18.1957 10.2275 18.0321L19.8187 8.44088V4.44848H16.2148L3.92788 16.7351L9.55221 22.3596L23.0826 8.82943V1.46685H14.457C13.8224 2.07536 10.8093 4.96356 7.80056 7.83377C0.93904 14.3793 0.794266 14.4518 0.688466 14.5046C0.481546 14.6081 0.229853 14.5243 0.126346 14.3174C0.0293863 14.1234 0.0969463 13.8901 0.276213 13.7764C0.795546 13.3746 8.75208 5.77781 13.9986 0.74552C14.0766 0.670706 14.1805 0.628906 14.2886 0.628906H23.5015C23.7329 0.628906 23.9205 0.81648 23.9205 1.04789V9.00301C23.9205 9.11408 23.8763 9.22068 23.7978 9.29924L9.84845 23.2484C9.76988 23.327 9.66333 23.3711 9.55221 23.3711Z" fill="white"/>
</g>
<defs>
<clipPath id="clip0_2_5820">
<rect width="24" height="24" fill="white"/>
</clipPath>
</defs>
</svg>
