<svg width="24" height="24" viewBox="0 0 24 24" fill="none" xmlns="http://www.w3.org/2000/svg">
<g clip-path="url(#clip0_2_5831)">
<path d="M23.5877 5.21054C23.3425 4.03692 22.9949 2.87579 22.5459 1.73311C22.5207 1.66894 22.4966 1.60451 22.4707 1.54038C22.2059 0.902525 21.6232 0.457031 21.0537 0.457031C20.9472 0.457031 20.8435 0.472978 20.7476 0.503578C19.6197 0.856791 18.4951 1.28494 17.4074 1.69899C15.0261 2.60567 12.5637 3.54312 10.0022 3.70438C9.70858 3.72343 9.44644 3.81962 9.24194 3.96768C9.06978 3.82982 8.85454 3.74683 8.62055 3.74683H3.38811C2.82668 3.74683 2.36995 4.21975 2.36995 4.80104V6.65607C2.303 6.64252 2.23384 6.6352 2.16298 6.6352H1.15271C0.575282 6.6352 0.105469 7.10812 0.105469 7.68942V11.1767C0.105469 11.758 0.575282 12.2309 1.15271 12.2309H2.16296C2.23383 12.2309 2.30299 12.2236 2.36994 12.21V14.0652C2.36994 14.6465 2.82667 15.1194 3.3881 15.1194H4.63083L9.01498 22.7219C9.30788 23.23 9.85442 23.5455 10.4413 23.5455C10.7283 23.5455 11.0121 23.4695 11.262 23.3254C12.0476 22.8722 12.3183 21.8642 11.8653 21.0784L8.42871 15.1194H8.62056C8.85468 15.1194 9.06991 15.0363 9.24214 14.8983C9.44671 15.0464 9.70907 15.1426 10.003 15.1618C12.5635 15.3229 15.0258 16.2604 17.4069 17.167C18.4947 17.5812 19.6195 18.0094 20.7456 18.362C20.8435 18.3932 20.9472 18.409 21.0536 18.409C21.623 18.409 22.2057 17.9636 22.4722 17.3219C22.4977 17.2589 22.5214 17.1956 22.5462 17.1324C22.9948 15.9915 23.3422 14.8312 23.5872 13.6581C23.7891 12.3866 23.8972 10.9394 23.8972 9.43302C23.8972 7.92764 23.7892 6.4814 23.5877 5.21054ZM2.16298 11.3906H1.15271C1.03864 11.3906 0.945789 11.2947 0.945789 11.1767V7.68942C0.945789 7.57148 1.03864 7.47552 1.15271 7.47552H2.16296C2.27708 7.47552 2.36994 7.57148 2.36994 7.68942V11.1767C2.36994 11.2947 2.2771 11.3906 2.16298 11.3906ZM11.1373 21.4982C11.3589 21.8826 11.2265 22.3757 10.8422 22.5974C10.7198 22.6679 10.5812 22.7052 10.4413 22.7052C10.1539 22.7052 9.88632 22.5508 9.74295 22.3022L5.6009 15.1194H7.45868L11.1373 21.4982ZM8.62055 14.2791H7.94406H6.97402H5.1163H4.14626H3.38811C3.2917 14.2791 3.21027 14.1811 3.21027 14.0652V11.1767V7.68942V4.80104C3.21027 4.68311 3.29004 4.58715 3.38811 4.58715H8.62056C8.71875 4.58715 8.79859 4.6831 8.79859 4.80104V14.0652C8.79858 14.1831 8.71874 14.2791 8.62055 14.2791ZM17.7059 16.3817C15.2662 15.4528 12.7434 14.4923 10.0567 14.3232C9.8055 14.3068 9.63891 14.1678 9.63891 14.0828V14.0652V4.80104V4.78328C9.63891 4.6984 9.80543 4.55926 10.0558 4.54302C12.7436 4.37379 15.2666 3.4133 17.7064 2.48435C18.4542 2.19971 19.2197 1.90886 19.9883 1.64127C19.7103 2.08827 19.4642 2.70451 19.2516 3.48856C19.0497 4.23287 18.8909 5.09126 18.7782 6.02203C18.744 6.30398 18.7141 6.59231 18.6887 6.88662C18.6184 7.70039 18.5815 8.55654 18.5815 9.43303C18.5815 10.3096 18.6184 11.1658 18.6887 11.9796C18.7141 12.2739 18.7441 12.5623 18.7782 12.8442C18.8909 13.7749 19.0497 14.6332 19.2516 15.3776C19.4642 16.1617 19.7104 16.778 19.9884 17.225C19.22 16.9576 18.4541 16.6666 17.7059 16.3817ZM19.4218 9.43302C19.4218 8.57763 19.4578 7.74399 19.526 6.9536C20.304 7.26731 20.874 8.25968 20.874 9.43307C20.874 10.6064 20.304 11.5988 19.5261 11.9125C19.4578 11.1222 19.4218 10.2885 19.4218 9.43302ZM22.7524 13.5616C22.6599 14.137 22.5475 14.6733 22.4161 15.1577C22.2116 15.9118 21.9942 16.4142 21.7979 16.7389C21.5605 17.1316 21.354 17.2642 21.2394 17.2642C21.0299 17.2642 20.5145 16.8239 20.0626 15.1577C19.8725 14.4568 19.7223 13.6474 19.6149 12.7675C20.8162 12.4156 21.7143 11.0547 21.7143 9.43307C21.7143 7.81146 20.8161 6.45056 19.6149 6.09874C19.7223 5.21878 19.8725 4.4093 20.0626 3.70848C20.5145 2.04214 21.03 1.60192 21.2394 1.60192C21.354 1.60192 21.5603 1.7344 21.7976 2.1269C21.994 2.45158 22.2116 2.95403 22.4161 3.70848C22.5479 4.19452 22.6606 4.73286 22.7533 5.31046C23.3388 8.04646 23.3384 10.8269 22.7524 13.5616Z" fill="white"/>
</g>
<defs>
<clipPath id="clip0_2_5831">
<rect width="24" height="24" fill="white"/>
</clipPath>
</defs>
</svg>
