<svg width="24" height="24" viewBox="0 0 24 24" fill="none" xmlns="http://www.w3.org/2000/svg">
<g clip-path="url(#clip0_24_470)">
<path d="M2.22886 23.8301C2.09503 23.7676 2 23.6328 2 23.4727V0.390625C2 0.175781 2.17261 0 2.3879 0H6.1505H21.6121C21.8254 0 22 0.173828 22 0.390625V21.4316C22 21.4531 21.9981 21.4727 21.9961 21.4922C21.9418 22.2598 21.6936 22.8574 21.2475 23.2871C20.8014 23.7129 20.1749 23.9512 19.3623 23.998C19.3448 24 19.3293 24.002 19.3119 24.002H2.54888C2.41699 24 2.29868 23.9316 2.22886 23.8301ZM10.8092 7.63281C11.2882 8.63672 12.737 8.67188 13.1947 7.63867C13.0706 7.51172 12.9775 7.375 12.8844 7.24023C12.8689 7.21875 12.8534 7.19531 12.8398 7.17383C12.6187 7.34961 12.351 7.46289 12.0019 7.46289C11.6257 7.46289 11.3406 7.31641 11.1078 7.10156C11.0943 7.08789 11.0807 7.07617 11.0671 7.0625C11.0341 7.15625 10.9915 7.26758 10.9469 7.37109C10.9003 7.4707 10.8538 7.56445 10.8092 7.63281ZM13.3285 7.52734C13.8386 7.89063 15.0799 7.97852 15.557 8.24609C15.7161 8.33399 15.8576 8.44727 15.974 8.60156C16.2145 8.91992 16.7033 10.0781 15.9081 10.1387H14.4127L14.597 8.06445C14.1955 7.98633 13.7708 7.92383 13.3266 7.66602C13.0531 8.87891 11.1932 9.05273 10.6579 7.69922C10.2603 7.90039 9.87238 8.01758 9.40884 8.08789L9.69783 10.1367H8.09193C7.29674 10.0762 7.78743 8.91797 8.02599 8.59961C8.14042 8.44727 8.28394 8.33398 8.44298 8.24414C8.91815 7.97656 10.1536 7.88867 10.6676 7.5293C10.7044 7.47266 10.7452 7.38867 10.7839 7.29883C10.8421 7.16406 10.8964 7.01563 10.9313 6.91406C10.7878 6.74414 10.6656 6.55274 10.5473 6.36328L10.1594 5.74023C10.0178 5.52734 9.94414 5.33203 9.93832 5.17188C9.93638 5.0957 9.94802 5.02734 9.97711 4.96875C10.0062 4.90625 10.0508 4.85352 10.1109 4.8125C10.1381 4.79297 10.1711 4.77734 10.206 4.76367C10.1808 4.42578 10.1711 4 10.1885 3.64453C10.1963 3.56055 10.2137 3.47461 10.237 3.39063C10.3359 3.0332 10.5861 2.74609 10.8945 2.54688C11.0652 2.4375 11.2514 2.35547 11.4453 2.30078C11.5675 2.26563 11.4279 1.98633 11.5559 1.97266C12.1726 1.9082 13.0842 2.35938 13.5147 2.82813C13.73 3.0625 13.8658 3.375 13.8949 3.78711L13.8697 4.80273C13.9783 4.83594 14.0462 4.9043 14.0753 5.01563C14.1063 5.13867 14.0733 5.3125 13.9686 5.55078C13.9666 5.55469 13.9647 5.55859 13.9628 5.56445L13.5206 6.29883C13.3576 6.56836 13.1928 6.83984 12.9775 7.05274C12.9969 7.08008 13.0163 7.10938 13.0357 7.13867C13.123 7.26758 13.2122 7.39844 13.3247 7.51367C13.3227 7.51953 13.3266 7.52344 13.3285 7.52734ZM10.4271 4.94531C10.3417 4.94922 10.2758 4.9668 10.2312 4.99609C10.206 5.01367 10.1866 5.03516 10.1749 5.06055C10.1614 5.08984 10.1555 5.125 10.1575 5.16602C10.1614 5.28516 10.2234 5.44141 10.3417 5.62109L10.3437 5.62305L10.7316 6.24609C10.8867 6.49609 11.0516 6.75 11.2533 6.9375C11.4492 7.11719 11.6858 7.23828 11.9981 7.24023C12.3375 7.24023 12.5857 7.11524 12.7874 6.92383C12.9969 6.72656 13.1618 6.45508 13.3247 6.18555L13.763 5.45898C13.8445 5.27148 13.8735 5.14648 13.8561 5.07227C13.8445 5.0293 13.7979 5.00781 13.7145 5.00195C13.6971 5.00195 13.6796 5 13.6621 5.00195C13.6427 5.00195 13.6214 5.00391 13.6001 5.00586C13.5884 5.00781 13.5768 5.00586 13.5671 5.00391C13.5283 5.00586 13.4876 5.00391 13.4469 4.99805L13.5962 4.33008C12.4829 4.50586 11.6509 3.67383 10.4736 4.16406L10.559 4.95117C10.5144 4.95313 10.4697 4.95117 10.4271 4.94531ZM15.6676 21.1289C15.4562 21.1289 15.2836 20.9551 15.2836 20.7383C15.2836 20.5234 15.4542 20.3477 15.6676 20.3477H18.9026C19.114 20.3477 19.2867 20.5215 19.2867 20.7383C19.2867 20.9531 19.116 21.1289 18.9026 21.1289H15.6676ZM5.26222 18.2852C5.05081 18.2852 4.8782 18.1113 4.8782 17.8945C4.8782 17.6797 5.04887 17.5039 5.26222 17.5039H18.9356C19.147 17.5039 19.3196 17.6777 19.3196 17.8945C19.3196 18.1094 19.149 18.2852 18.9356 18.2852H5.26222ZM5.32428 15.4414C5.11288 15.4414 4.94026 15.2676 4.94026 15.0508C4.94026 14.8359 5.11094 14.6602 5.32428 14.6602H18.9007C19.1121 14.6602 19.2847 14.834 19.2847 15.0508C19.2847 15.2656 19.114 15.4414 18.9007 15.4414H5.32428ZM5.26222 12.5977C5.05081 12.5977 4.8782 12.4238 4.8782 12.207C4.8782 11.9922 5.04887 11.8164 5.26222 11.8164H11.1059C11.3173 11.8164 11.4899 11.9902 11.4899 12.207C11.4899 12.4219 11.3192 12.5977 11.1059 12.5977H5.26222ZM12.5974 12.5977C12.386 12.5977 12.2133 12.4238 12.2133 12.207C12.2133 11.9922 12.384 11.8164 12.5974 11.8164H18.9007C19.1121 11.8164 19.2847 11.9902 19.2847 12.207C19.2847 12.4219 19.114 12.5977 18.9007 12.5977H12.5974ZM21.2261 21.4219V0.779297H6.1505H2.77386V23.2207H19.3099H19.3177C19.9403 23.1855 20.4057 23.0176 20.7141 22.7227C21.0186 22.4316 21.1874 21.9961 21.2261 21.4219Z" fill="white"/>
</g>
<defs>
<clipPath id="clip0_24_470">
<rect width="20" height="24" fill="white" transform="translate(2)"/>
</clipPath>
</defs>
</svg>
